<svg width="229" height="285" viewBox="0 0 229 285" fill="none" xmlns="http://www.w3.org/2000/svg">
<rect x="1" y="1" width="227" height="280" rx="7" fill="#F0F0F0" stroke="#0D6EFC" stroke-width="2"/>
<path d="M101.348 211.33L0 9V282H222L101.348 211.33Z" fill="#0D6EFC"/>
<path d="M7.00781 265.598C7.00781 262.902 7.69141 260.762 9.05859 259.176C10.4258 257.59 12.3984 256.797 14.9766 256.797C16.4609 256.797 17.7188 257.027 18.75 257.488C19.7812 257.949 20.5078 258.617 20.9297 259.492C21.2109 260.07 21.1641 260.461 20.7891 260.664L19.3828 261.414C18.8906 261.68 18.4844 261.531 18.1641 260.969C17.9609 260.609 17.582 260.285 17.0273 259.996C16.4805 259.707 15.8359 259.562 15.0938 259.562C13.4531 259.562 12.3047 260.082 11.6484 261.121C10.9922 262.152 10.6641 263.645 10.6641 265.598C10.6641 267.551 10.9922 269.047 11.6484 270.086C12.3047 271.117 13.4531 271.633 15.0938 271.633C15.9766 271.633 16.7188 271.434 17.3203 271.035C17.9297 270.637 18.3516 270.258 18.5859 269.898C18.9688 269.312 19.375 269.164 19.8047 269.453L21.2109 270.391C21.5938 270.648 21.6328 271.039 21.3281 271.562C20.875 272.344 20.0977 273.012 18.9961 273.566C17.8945 274.121 16.5547 274.398 14.9766 274.398C12.4375 274.398 10.4727 273.605 9.08203 272.02C7.69922 270.434 7.00781 268.293 7.00781 265.598ZM25.3125 274C24.7656 274 24.4922 273.707 24.4922 273.121V258.074C24.4922 257.488 24.7656 257.195 25.3125 257.195H30.7383C33.1523 257.195 34.9141 257.57 36.0234 258.32C37.1328 259.062 37.6875 260.273 37.6875 261.953C37.6875 263.203 37.2383 264.199 36.3398 264.941C35.4414 265.684 34.3008 266.176 32.918 266.418V266.441C33.668 266.723 34.2344 267.113 34.6172 267.613C35 268.113 35.3125 268.551 35.5547 268.926L38.1328 272.992C38.5625 273.664 38.4141 274 37.6875 274H35.6484C35.2188 274 34.8672 273.77 34.5938 273.309L32.2266 269.359C31.9688 268.938 31.4961 268.477 30.8086 267.977C30.1289 267.469 29.4531 267.215 28.7812 267.215H27.9141V273.121C27.9141 273.707 27.6406 274 27.0938 274H25.3125ZM27.9141 264.309H30.0117C31.5742 264.309 32.6836 264.133 33.3398 263.781C34.0039 263.422 34.3359 262.855 34.3359 262.082C34.3359 261.238 34.0156 260.691 33.375 260.441C32.7422 260.184 31.8086 260.055 30.5742 260.055H27.9141V264.309ZM42.0469 274C41.5 274 41.2266 273.707 41.2266 273.121V258.074C41.2266 257.488 41.5 257.195 42.0469 257.195H43.8281C44.375 257.195 44.6484 257.488 44.6484 258.074V273.121C44.6484 273.707 44.375 274 43.8281 274H42.0469ZM47.8711 274C47.3086 274 47.125 273.742 47.3203 273.227L53.0625 258.145C53.3047 257.512 53.6719 257.195 54.1641 257.195H55.8047C56.2969 257.195 56.6641 257.512 56.9062 258.145L62.6484 273.227C62.8438 273.742 62.6602 274 62.0977 274H60.2344C59.7188 274 59.3594 273.73 59.1562 273.191L57.9609 270.039H52.0078L50.8125 273.191C50.6094 273.73 50.25 274 49.7344 274H47.8711ZM53.0977 267.133H56.8711L55.4297 263.406C55.2578 262.969 55.1523 262.652 55.1133 262.457C55.082 262.254 55.0469 261.957 55.0078 261.566H54.9609C54.9219 261.957 54.8828 262.254 54.8438 262.457C54.8125 262.652 54.7109 262.969 54.5391 263.406L53.0977 267.133ZM63.8672 265.598C63.8672 262.902 64.5508 260.762 65.918 259.176C67.2852 257.59 69.2578 256.797 71.8359 256.797C73.3203 256.797 74.5781 257.027 75.6094 257.488C76.6406 257.949 77.3672 258.617 77.7891 259.492C78.0703 260.07 78.0234 260.461 77.6484 260.664L76.2422 261.414C75.75 261.68 75.3438 261.531 75.0234 260.969C74.8203 260.609 74.4414 260.285 73.8867 259.996C73.3398 259.707 72.6953 259.562 71.9531 259.562C70.3125 259.562 69.1641 260.082 68.5078 261.121C67.8516 262.152 67.5234 263.645 67.5234 265.598C67.5234 267.551 67.8516 269.047 68.5078 270.086C69.1641 271.117 70.3125 271.633 71.9531 271.633C72.8359 271.633 73.5781 271.434 74.1797 271.035C74.7891 270.637 75.2109 270.258 75.4453 269.898C75.8281 269.312 76.2344 269.164 76.6641 269.453L78.0703 270.391C78.4531 270.648 78.4922 271.039 78.1875 271.562C77.7344 272.344 76.957 273.012 75.8555 273.566C74.7539 274.121 73.4141 274.398 71.8359 274.398C69.2969 274.398 67.332 273.605 65.9414 272.02C64.5586 270.434 63.8672 268.293 63.8672 265.598ZM69.293 278.699C69.0742 278.637 69.0039 278.473 69.082 278.207L69.2344 277.68C69.3203 277.391 69.5 277.301 69.7734 277.41C70.0391 277.512 70.3516 277.562 70.7109 277.562C71.0312 277.562 71.2812 277.508 71.4609 277.398C71.6484 277.297 71.7422 277.133 71.7422 276.906C71.7422 276.711 71.6445 276.562 71.4492 276.461C71.2617 276.359 70.957 276.309 70.5352 276.309H70.2891C70.0234 276.309 69.8906 276.172 69.8906 275.898C69.8906 275.578 69.9453 275.312 70.0547 275.102L70.6172 274C70.7031 273.828 70.8594 273.742 71.0859 273.742H72.0586C72.293 273.742 72.3672 273.828 72.2812 274L71.7539 275.031V275.066C72.4258 275.16 72.8945 275.359 73.1602 275.664C73.4258 275.969 73.5586 276.367 73.5586 276.859C73.5586 277.609 73.3008 278.137 72.7852 278.441C72.2695 278.754 71.6211 278.91 70.8398 278.91C70.3008 278.91 69.7852 278.84 69.293 278.699ZM83.4961 255.449C83.2305 255.285 83.1992 255.035 83.4023 254.699C83.6914 254.223 84.0508 253.836 84.4805 253.539C84.9102 253.234 85.5078 253.082 86.2734 253.082C86.8203 253.082 87.4609 253.262 88.1953 253.621C88.9297 253.98 89.4492 254.16 89.7539 254.16C90.0273 254.16 90.2891 254.094 90.5391 253.961C90.7969 253.828 90.9883 253.664 91.1133 253.469C91.3242 253.141 91.5586 253.055 91.8164 253.211L92.3789 253.551C92.6445 253.715 92.6758 253.965 92.4727 254.301C92.1836 254.777 91.8242 255.168 91.3945 255.473C90.9648 255.77 90.3672 255.918 89.6016 255.918C89.0234 255.918 88.3828 255.738 87.6797 255.379C86.9766 255.02 86.457 254.84 86.1211 254.84C85.8477 254.84 85.582 254.906 85.3242 255.039C85.0742 255.172 84.8867 255.336 84.7617 255.531C84.5508 255.859 84.3164 255.945 84.0586 255.789L83.4961 255.449ZM80.8242 274C80.2617 274 80.0781 273.742 80.2734 273.227L86.0156 258.145C86.2578 257.512 86.625 257.195 87.1172 257.195H88.7578C89.25 257.195 89.6172 257.512 89.8594 258.145L95.6016 273.227C95.7969 273.742 95.6133 274 95.0508 274H93.1875C92.6719 274 92.3125 273.73 92.1094 273.191L90.9141 270.039H84.9609L83.7656 273.191C83.5625 273.73 83.2031 274 82.6875 274H80.8242ZM86.0508 267.133H89.8242L88.3828 263.406C88.2109 262.969 88.1055 262.652 88.0664 262.457C88.0352 262.254 88 261.957 87.9609 261.566H87.9141C87.875 261.957 87.8359 262.254 87.7969 262.457C87.7656 262.652 87.6641 262.969 87.4922 263.406L86.0508 267.133ZM96.8203 265.598C96.8203 262.902 97.5156 260.762 98.9062 259.176C100.297 257.59 102.281 256.797 104.859 256.797C107.438 256.797 109.422 257.59 110.812 259.176C112.203 260.762 112.898 262.902 112.898 265.598C112.898 268.293 112.203 270.434 110.812 272.02C109.422 273.605 107.438 274.398 104.859 274.398C102.281 274.398 100.297 273.605 98.9062 272.02C97.5156 270.434 96.8203 268.293 96.8203 265.598ZM100.477 265.598C100.477 267.551 100.824 269.047 101.52 270.086C102.223 271.117 103.336 271.633 104.859 271.633C106.383 271.633 107.492 271.117 108.188 270.086C108.891 269.047 109.242 267.551 109.242 265.598C109.242 263.645 108.891 262.152 108.188 261.121C107.492 260.082 106.383 259.562 104.859 259.562C103.336 259.562 102.223 260.082 101.52 261.121C100.824 262.152 100.477 263.645 100.477 265.598Z" fill="white"/>
<g clip-path="url(#clip0_10_69)">
<path d="M153 69.875C153 67.5212 153.803 65.2638 155.233 63.5994C156.663 61.935 158.603 61 160.625 61H206.375C208.397 61 210.337 61.935 211.767 63.5994C213.197 65.2638 214 67.5212 214 69.875V194.125C214 196.479 213.197 198.736 211.767 200.401C210.337 202.065 208.397 203 206.375 203H160.625C158.603 203 156.663 202.065 155.233 200.401C153.803 198.736 153 196.479 153 194.125V69.875ZM160.625 189.688C160.625 190.864 161.027 191.993 161.742 192.825C162.457 193.657 163.426 194.125 164.438 194.125C165.449 194.125 166.418 193.657 167.133 192.825C167.848 191.993 168.25 190.864 168.25 189.688C168.25 188.511 167.848 187.382 167.133 186.55C166.418 185.718 165.449 185.25 164.438 185.25C163.426 185.25 162.457 185.718 161.742 186.55C161.027 187.382 160.625 188.511 160.625 189.688ZM175.875 189.688C175.875 190.864 176.277 191.993 176.992 192.825C177.707 193.657 178.676 194.125 179.688 194.125C180.699 194.125 181.668 193.657 182.383 192.825C183.098 191.993 183.5 190.864 183.5 189.688C183.5 188.511 183.098 187.382 182.383 186.55C181.668 185.718 180.699 185.25 179.688 185.25C178.676 185.25 177.707 185.718 176.992 186.55C176.277 187.382 175.875 188.511 175.875 189.688ZM164.438 69.875C163.426 69.875 162.457 70.3425 161.742 71.1747C161.027 72.0069 160.625 73.1356 160.625 74.3125C160.625 75.4894 161.027 76.6181 161.742 77.4503C162.457 78.2825 163.426 78.75 164.438 78.75H202.562C203.574 78.75 204.543 78.2825 205.258 77.4503C205.973 76.6181 206.375 75.4894 206.375 74.3125C206.375 73.1356 205.973 72.0069 205.258 71.1747C204.543 70.3425 203.574 69.875 202.562 69.875H164.438ZM160.625 92.0625C160.625 93.2394 161.027 94.3681 161.742 95.2003C162.457 96.0325 163.426 96.5 164.438 96.5H202.562C203.574 96.5 204.543 96.0325 205.258 95.2003C205.973 94.3681 206.375 93.2394 206.375 92.0625C206.375 90.8856 205.973 89.7569 205.258 88.9247C204.543 88.0925 203.574 87.625 202.562 87.625H164.438C163.426 87.625 162.457 88.0925 161.742 88.9247C161.027 89.7569 160.625 90.8856 160.625 92.0625ZM103.438 78.75C100.404 78.75 97.4949 80.1526 95.35 82.6491C93.205 85.1457 92 88.5318 92 92.0625V154.188C92 157.718 93.205 161.104 95.35 163.601C97.4949 166.097 100.404 167.5 103.438 167.5H137.75V185.25H133.938C132.926 185.25 131.957 185.718 131.242 186.55C130.527 187.382 130.125 188.511 130.125 189.688C130.125 190.864 130.527 191.993 131.242 192.825C131.957 193.657 132.926 194.125 133.938 194.125H145.375V158.625H103.438C102.426 158.625 101.457 158.157 100.742 157.325C100.027 156.493 99.625 155.364 99.625 154.188V92.0625C99.625 90.8856 100.027 89.7569 100.742 88.9247C101.457 88.0925 102.426 87.625 103.438 87.625H145.375V78.75H103.438Z" fill="#0D6EFC"/>
<path d="M116.553 120.46L109.702 126L116.553 131.541C116.781 131.721 116.969 131.944 117.107 132.195C117.245 132.447 117.331 132.723 117.358 133.007C117.386 133.29 117.356 133.577 117.269 133.849C117.182 134.122 117.041 134.375 116.853 134.594C116.665 134.813 116.434 134.993 116.174 135.125C115.913 135.258 115.628 135.338 115.336 135.363C115.043 135.388 114.748 135.356 114.468 135.27C114.188 135.183 113.929 135.044 113.704 134.86L104.801 127.66C104.55 127.457 104.349 127.203 104.21 126.917C104.072 126.63 104 126.317 104 126C104 125.684 104.072 125.371 104.21 125.084C104.349 124.797 104.55 124.543 104.801 124.341L113.704 117.141C114.159 116.78 114.742 116.607 115.326 116.661C115.911 116.715 116.45 116.991 116.826 117.429C117.201 117.867 117.384 118.431 117.333 118.999C117.282 119.567 117.002 120.092 116.553 120.46ZM149.199 124.341L140.296 117.141C140.071 116.957 139.812 116.817 139.532 116.731C139.252 116.644 138.957 116.613 138.664 116.637C138.372 116.662 138.087 116.743 137.826 116.875C137.566 117.007 137.335 117.188 137.147 117.407C136.959 117.626 136.818 117.879 136.731 118.151C136.644 118.424 136.614 118.71 136.642 118.994C136.669 119.278 136.755 119.553 136.893 119.805C137.031 120.057 137.219 120.279 137.447 120.46L144.298 126L137.447 131.541C137.219 131.721 137.031 131.944 136.893 132.195C136.755 132.447 136.669 132.723 136.642 133.007C136.614 133.29 136.644 133.577 136.731 133.849C136.818 134.122 136.959 134.375 137.147 134.594C137.335 134.813 137.566 134.993 137.826 135.125C138.087 135.258 138.372 135.338 138.664 135.363C138.957 135.388 139.252 135.356 139.532 135.27C139.812 135.183 140.071 135.044 140.296 134.86L149.199 127.66C149.45 127.457 149.651 127.203 149.79 126.917C149.928 126.63 150 126.317 150 126C150 125.684 149.928 125.371 149.79 125.084C149.651 124.797 149.45 124.543 149.199 124.341ZM133.696 108.13C133.421 108.033 133.129 107.99 132.837 108.002C132.545 108.015 132.259 108.083 131.994 108.203C131.729 108.323 131.491 108.492 131.293 108.702C131.096 108.911 130.943 109.156 130.843 109.422L118.972 141.102C118.771 141.64 118.798 142.234 119.048 142.753C119.298 143.272 119.749 143.673 120.304 143.869C120.547 143.956 120.805 144 121.064 144C121.521 144 121.967 143.864 122.342 143.609C122.716 143.355 123.001 142.995 123.157 142.578L135.028 110.898C135.128 110.632 135.173 110.349 135.16 110.065C135.147 109.782 135.077 109.504 134.953 109.247C134.829 108.989 134.655 108.759 134.439 108.567C134.223 108.375 133.971 108.227 133.696 108.13Z" fill="#0D6EFC"/>
</g>
<g clip-path="url(#clip1_10_69)">
<path d="M153 69.875C153 67.5212 153.803 65.2638 155.233 63.5994C156.663 61.935 158.603 61 160.625 61H206.375C208.397 61 210.337 61.935 211.767 63.5994C213.197 65.2638 214 67.5212 214 69.875V194.125C214 196.479 213.197 198.736 211.767 200.401C210.337 202.065 208.397 203 206.375 203H160.625C158.603 203 156.663 202.065 155.233 200.401C153.803 198.736 153 196.479 153 194.125V69.875ZM160.625 189.688C160.625 190.864 161.027 191.993 161.742 192.825C162.457 193.657 163.426 194.125 164.438 194.125C165.449 194.125 166.418 193.657 167.133 192.825C167.848 191.993 168.25 190.864 168.25 189.688C168.25 188.511 167.848 187.382 167.133 186.55C166.418 185.718 165.449 185.25 164.438 185.25C163.426 185.25 162.457 185.718 161.742 186.55C161.027 187.382 160.625 188.511 160.625 189.688ZM175.875 189.688C175.875 190.864 176.277 191.993 176.992 192.825C177.707 193.657 178.676 194.125 179.688 194.125C180.699 194.125 181.668 193.657 182.383 192.825C183.098 191.993 183.5 190.864 183.5 189.688C183.5 188.511 183.098 187.382 182.383 186.55C181.668 185.718 180.699 185.25 179.688 185.25C178.676 185.25 177.707 185.718 176.992 186.55C176.277 187.382 175.875 188.511 175.875 189.688ZM164.438 69.875C163.426 69.875 162.457 70.3425 161.742 71.1747C161.027 72.0069 160.625 73.1356 160.625 74.3125C160.625 75.4894 161.027 76.6181 161.742 77.4503C162.457 78.2825 163.426 78.75 164.438 78.75H202.562C203.574 78.75 204.543 78.2825 205.258 77.4503C205.973 76.6181 206.375 75.4894 206.375 74.3125C206.375 73.1356 205.973 72.0069 205.258 71.1747C204.543 70.3425 203.574 69.875 202.562 69.875H164.438ZM160.625 92.0625C160.625 93.2394 161.027 94.3681 161.742 95.2003C162.457 96.0325 163.426 96.5 164.438 96.5H202.562C203.574 96.5 204.543 96.0325 205.258 95.2003C205.973 94.3681 206.375 93.2394 206.375 92.0625C206.375 90.8856 205.973 89.7569 205.258 88.9247C204.543 88.0925 203.574 87.625 202.562 87.625H164.438C163.426 87.625 162.457 88.0925 161.742 88.9247C161.027 89.7569 160.625 90.8856 160.625 92.0625ZM103.438 78.75C100.404 78.75 97.4949 80.1526 95.35 82.6491C93.205 85.1457 92 88.5318 92 92.0625V154.188C92 157.718 93.205 161.104 95.35 163.601C97.4949 166.097 100.404 167.5 103.438 167.5H137.75V185.25H133.938C132.926 185.25 131.957 185.718 131.242 186.55C130.527 187.382 130.125 188.511 130.125 189.688C130.125 190.864 130.527 191.993 131.242 192.825C131.957 193.657 132.926 194.125 133.938 194.125H145.375V158.625H103.438C102.426 158.625 101.457 158.157 100.742 157.325C100.027 156.493 99.625 155.364 99.625 154.188V92.0625C99.625 90.8856 100.027 89.7569 100.742 88.9247C101.457 88.0925 102.426 87.625 103.438 87.625H145.375V78.75H103.438Z" fill="#0D6EFC"/>
<path d="M116.553 120.46L109.702 126L116.553 131.541C116.781 131.721 116.969 131.944 117.107 132.195C117.245 132.447 117.331 132.723 117.358 133.007C117.386 133.29 117.356 133.577 117.269 133.849C117.182 134.122 117.041 134.375 116.853 134.594C116.665 134.813 116.434 134.993 116.174 135.125C115.913 135.258 115.628 135.338 115.336 135.363C115.043 135.388 114.748 135.356 114.468 135.27C114.188 135.183 113.929 135.044 113.704 134.86L104.801 127.66C104.55 127.457 104.349 127.203 104.21 126.917C104.072 126.63 104 126.317 104 126C104 125.684 104.072 125.371 104.21 125.084C104.349 124.797 104.55 124.543 104.801 124.341L113.704 117.141C114.159 116.78 114.742 116.607 115.326 116.661C115.911 116.715 116.45 116.991 116.826 117.429C117.201 117.867 117.384 118.431 117.333 118.999C117.282 119.567 117.002 120.092 116.553 120.46ZM149.199 124.341L140.296 117.141C140.071 116.957 139.812 116.817 139.532 116.731C139.252 116.644 138.957 116.613 138.664 116.637C138.372 116.662 138.087 116.743 137.826 116.875C137.566 117.007 137.335 117.188 137.147 117.407C136.959 117.626 136.818 117.879 136.731 118.151C136.644 118.424 136.614 118.71 136.642 118.994C136.669 119.278 136.755 119.553 136.893 119.805C137.031 120.057 137.219 120.279 137.447 120.46L144.298 126L137.447 131.541C137.219 131.721 137.031 131.944 136.893 132.195C136.755 132.447 136.669 132.723 136.642 133.007C136.614 133.29 136.644 133.577 136.731 133.849C136.818 134.122 136.959 134.375 137.147 134.594C137.335 134.813 137.566 134.993 137.826 135.125C138.087 135.258 138.372 135.338 138.664 135.363C138.957 135.388 139.252 135.356 139.532 135.27C139.812 135.183 140.071 135.044 140.296 134.86L149.199 127.66C149.45 127.457 149.651 127.203 149.79 126.917C149.928 126.63 150 126.317 150 126C150 125.684 149.928 125.371 149.79 125.084C149.651 124.797 149.45 124.543 149.199 124.341ZM133.696 108.13C133.421 108.033 133.129 107.99 132.837 108.002C132.545 108.015 132.259 108.083 131.994 108.203C131.729 108.323 131.491 108.492 131.293 108.702C131.096 108.911 130.943 109.156 130.843 109.422L118.972 141.102C118.771 141.64 118.798 142.234 119.048 142.753C119.298 143.272 119.749 143.673 120.304 143.869C120.547 143.956 120.805 144 121.064 144C121.521 144 121.967 143.864 122.342 143.609C122.716 143.355 123.001 142.995 123.157 142.578L135.028 110.898C135.128 110.632 135.173 110.349 135.16 110.065C135.147 109.782 135.077 109.504 134.953 109.247C134.829 108.989 134.655 108.759 134.439 108.567C134.223 108.375 133.971 108.227 133.696 108.13Z" fill="#0D6EFC"/>
</g>
<defs>
<clipPath id="clip0_10_69">
<rect width="122" height="142" fill="white" transform="translate(92 61)"/>
</clipPath>
<clipPath id="clip1_10_69">
<rect width="122" height="142" fill="white" transform="translate(92 61)"/>
</clipPath>
</defs>
</svg>
