<svg width="229" height="282" viewBox="0 0 229 282" fill="none" xmlns="http://www.w3.org/2000/svg">
<rect x="1" y="1" width="227" height="280" rx="7" fill="#F0F0F0" stroke="#0D6EFC" stroke-width="2"/>
<path d="M101.348 211.33L0 9V282H222L101.348 211.33Z" fill="#0D6EFC"/>
<g clip-path="url(#clip0_10_69)">
<path d="M153 69.875C153 67.5212 153.803 65.2638 155.233 63.5994C156.663 61.935 158.603 61 160.625 61H206.375C208.397 61 210.337 61.935 211.767 63.5994C213.197 65.2638 214 67.5212 214 69.875V194.125C214 196.479 213.197 198.736 211.767 200.401C210.337 202.065 208.397 203 206.375 203H160.625C158.603 203 156.663 202.065 155.233 200.401C153.803 198.736 153 196.479 153 194.125V69.875ZM160.625 189.688C160.625 190.864 161.027 191.993 161.742 192.825C162.457 193.657 163.426 194.125 164.438 194.125C165.449 194.125 166.418 193.657 167.133 192.825C167.848 191.993 168.25 190.864 168.25 189.688C168.25 188.511 167.848 187.382 167.133 186.55C166.418 185.718 165.449 185.25 164.438 185.25C163.426 185.25 162.457 185.718 161.742 186.55C161.027 187.382 160.625 188.511 160.625 189.688ZM175.875 189.688C175.875 190.864 176.277 191.993 176.992 192.825C177.707 193.657 178.676 194.125 179.688 194.125C180.699 194.125 181.668 193.657 182.383 192.825C183.098 191.993 183.5 190.864 183.5 189.688C183.5 188.511 183.098 187.382 182.383 186.55C181.668 185.718 180.699 185.25 179.688 185.25C178.676 185.25 177.707 185.718 176.992 186.55C176.277 187.382 175.875 188.511 175.875 189.688ZM164.438 69.875C163.426 69.875 162.457 70.3425 161.742 71.1747C161.027 72.0069 160.625 73.1356 160.625 74.3125C160.625 75.4894 161.027 76.6181 161.742 77.4503C162.457 78.2825 163.426 78.75 164.438 78.75H202.562C203.574 78.75 204.543 78.2825 205.258 77.4503C205.973 76.6181 206.375 75.4894 206.375 74.3125C206.375 73.1356 205.973 72.0069 205.258 71.1747C204.543 70.3425 203.574 69.875 202.562 69.875H164.438ZM160.625 92.0625C160.625 93.2394 161.027 94.3681 161.742 95.2003C162.457 96.0325 163.426 96.5 164.438 96.5H202.562C203.574 96.5 204.543 96.0325 205.258 95.2003C205.973 94.3681 206.375 93.2394 206.375 92.0625C206.375 90.8856 205.973 89.7569 205.258 88.9247C204.543 88.0925 203.574 87.625 202.562 87.625H164.438C163.426 87.625 162.457 88.0925 161.742 88.9247C161.027 89.7569 160.625 90.8856 160.625 92.0625ZM103.438 78.75C100.404 78.75 97.4949 80.1526 95.35 82.6491C93.205 85.1457 92 88.5318 92 92.0625V154.188C92 157.718 93.205 161.104 95.35 163.601C97.4949 166.097 100.404 167.5 103.438 167.5H137.75V185.25H133.938C132.926 185.25 131.957 185.718 131.242 186.55C130.527 187.382 130.125 188.511 130.125 189.688C130.125 190.864 130.527 191.993 131.242 192.825C131.957 193.657 132.926 194.125 133.938 194.125H145.375V158.625H103.438C102.426 158.625 101.457 158.157 100.742 157.325C100.027 156.493 99.625 155.364 99.625 154.188V92.0625C99.625 90.8856 100.027 89.7569 100.742 88.9247C101.457 88.0925 102.426 87.625 103.438 87.625H145.375V78.75H103.438Z" fill="#0D6EFC"/>
<path d="M116.553 120.46L109.702 126L116.553 131.541C116.781 131.721 116.969 131.944 117.107 132.195C117.245 132.447 117.331 132.723 117.358 133.007C117.386 133.29 117.356 133.577 117.269 133.849C117.182 134.122 117.041 134.375 116.853 134.594C116.665 134.813 116.434 134.993 116.174 135.125C115.913 135.258 115.628 135.338 115.336 135.363C115.043 135.388 114.748 135.356 114.468 135.27C114.188 135.183 113.929 135.044 113.704 134.86L104.801 127.66C104.55 127.457 104.349 127.203 104.21 126.917C104.072 126.63 104 126.317 104 126C104 125.684 104.072 125.371 104.21 125.084C104.349 124.797 104.55 124.543 104.801 124.341L113.704 117.141C114.159 116.78 114.742 116.607 115.326 116.661C115.911 116.715 116.45 116.991 116.826 117.429C117.201 117.867 117.384 118.431 117.333 118.999C117.282 119.567 117.002 120.092 116.553 120.46ZM149.199 124.341L140.296 117.141C140.071 116.957 139.812 116.817 139.532 116.731C139.252 116.644 138.957 116.613 138.664 116.637C138.372 116.662 138.087 116.743 137.826 116.875C137.566 117.007 137.335 117.188 137.147 117.407C136.959 117.626 136.818 117.879 136.731 118.151C136.644 118.424 136.614 118.71 136.642 118.994C136.669 119.278 136.755 119.553 136.893 119.805C137.031 120.057 137.219 120.279 137.447 120.46L144.298 126L137.447 131.541C137.219 131.721 137.031 131.944 136.893 132.195C136.755 132.447 136.669 132.723 136.642 133.007C136.614 133.29 136.644 133.577 136.731 133.849C136.818 134.122 136.959 134.375 137.147 134.594C137.335 134.813 137.566 134.993 137.826 135.125C138.087 135.258 138.372 135.338 138.664 135.363C138.957 135.388 139.252 135.356 139.532 135.27C139.812 135.183 140.071 135.044 140.296 134.86L149.199 127.66C149.45 127.457 149.651 127.203 149.79 126.917C149.928 126.63 150 126.317 150 126C150 125.684 149.928 125.371 149.79 125.084C149.651 124.797 149.45 124.543 149.199 124.341ZM133.696 108.13C133.421 108.033 133.129 107.99 132.837 108.002C132.545 108.015 132.259 108.083 131.994 108.203C131.729 108.323 131.491 108.492 131.293 108.702C131.096 108.911 130.943 109.156 130.843 109.422L118.972 141.102C118.771 141.64 118.798 142.234 119.048 142.753C119.298 143.272 119.749 143.673 120.304 143.869C120.547 143.956 120.805 144 121.064 144C121.521 144 121.967 143.864 122.342 143.609C122.716 143.355 123.001 142.995 123.157 142.578L135.028 110.898C135.128 110.632 135.173 110.349 135.16 110.065C135.147 109.782 135.077 109.504 134.953 109.247C134.829 108.989 134.655 108.759 134.439 108.567C134.223 108.375 133.971 108.227 133.696 108.13Z" fill="#0D6EFC"/>
</g>
<g clip-path="url(#clip1_10_69)">
<path d="M153 69.875C153 67.5212 153.803 65.2638 155.233 63.5994C156.663 61.935 158.603 61 160.625 61H206.375C208.397 61 210.337 61.935 211.767 63.5994C213.197 65.2638 214 67.5212 214 69.875V194.125C214 196.479 213.197 198.736 211.767 200.401C210.337 202.065 208.397 203 206.375 203H160.625C158.603 203 156.663 202.065 155.233 200.401C153.803 198.736 153 196.479 153 194.125V69.875ZM160.625 189.688C160.625 190.864 161.027 191.993 161.742 192.825C162.457 193.657 163.426 194.125 164.438 194.125C165.449 194.125 166.418 193.657 167.133 192.825C167.848 191.993 168.25 190.864 168.25 189.688C168.25 188.511 167.848 187.382 167.133 186.55C166.418 185.718 165.449 185.25 164.438 185.25C163.426 185.25 162.457 185.718 161.742 186.55C161.027 187.382 160.625 188.511 160.625 189.688ZM175.875 189.688C175.875 190.864 176.277 191.993 176.992 192.825C177.707 193.657 178.676 194.125 179.688 194.125C180.699 194.125 181.668 193.657 182.383 192.825C183.098 191.993 183.5 190.864 183.5 189.688C183.5 188.511 183.098 187.382 182.383 186.55C181.668 185.718 180.699 185.25 179.688 185.25C178.676 185.25 177.707 185.718 176.992 186.55C176.277 187.382 175.875 188.511 175.875 189.688ZM164.438 69.875C163.426 69.875 162.457 70.3425 161.742 71.1747C161.027 72.0069 160.625 73.1356 160.625 74.3125C160.625 75.4894 161.027 76.6181 161.742 77.4503C162.457 78.2825 163.426 78.75 164.438 78.75H202.562C203.574 78.75 204.543 78.2825 205.258 77.4503C205.973 76.6181 206.375 75.4894 206.375 74.3125C206.375 73.1356 205.973 72.0069 205.258 71.1747C204.543 70.3425 203.574 69.875 202.562 69.875H164.438ZM160.625 92.0625C160.625 93.2394 161.027 94.3681 161.742 95.2003C162.457 96.0325 163.426 96.5 164.438 96.5H202.562C203.574 96.5 204.543 96.0325 205.258 95.2003C205.973 94.3681 206.375 93.2394 206.375 92.0625C206.375 90.8856 205.973 89.7569 205.258 88.9247C204.543 88.0925 203.574 87.625 202.562 87.625H164.438C163.426 87.625 162.457 88.0925 161.742 88.9247C161.027 89.7569 160.625 90.8856 160.625 92.0625ZM103.438 78.75C100.404 78.75 97.4949 80.1526 95.35 82.6491C93.205 85.1457 92 88.5318 92 92.0625V154.188C92 157.718 93.205 161.104 95.35 163.601C97.4949 166.097 100.404 167.5 103.438 167.5H137.75V185.25H133.938C132.926 185.25 131.957 185.718 131.242 186.55C130.527 187.382 130.125 188.511 130.125 189.688C130.125 190.864 130.527 191.993 131.242 192.825C131.957 193.657 132.926 194.125 133.938 194.125H145.375V158.625H103.438C102.426 158.625 101.457 158.157 100.742 157.325C100.027 156.493 99.625 155.364 99.625 154.188V92.0625C99.625 90.8856 100.027 89.7569 100.742 88.9247C101.457 88.0925 102.426 87.625 103.438 87.625H145.375V78.75H103.438Z" fill="#0D6EFC"/>
<path d="M116.553 120.46L109.702 126L116.553 131.541C116.781 131.721 116.969 131.944 117.107 132.195C117.245 132.447 117.331 132.723 117.358 133.007C117.386 133.29 117.356 133.577 117.269 133.849C117.182 134.122 117.041 134.375 116.853 134.594C116.665 134.813 116.434 134.993 116.174 135.125C115.913 135.258 115.628 135.338 115.336 135.363C115.043 135.388 114.748 135.356 114.468 135.27C114.188 135.183 113.929 135.044 113.704 134.86L104.801 127.66C104.55 127.457 104.349 127.203 104.21 126.917C104.072 126.63 104 126.317 104 126C104 125.684 104.072 125.371 104.21 125.084C104.349 124.797 104.55 124.543 104.801 124.341L113.704 117.141C114.159 116.78 114.742 116.607 115.326 116.661C115.911 116.715 116.45 116.991 116.826 117.429C117.201 117.867 117.384 118.431 117.333 118.999C117.282 119.567 117.002 120.092 116.553 120.46ZM149.199 124.341L140.296 117.141C140.071 116.957 139.812 116.817 139.532 116.731C139.252 116.644 138.957 116.613 138.664 116.637C138.372 116.662 138.087 116.743 137.826 116.875C137.566 117.007 137.335 117.188 137.147 117.407C136.959 117.626 136.818 117.879 136.731 118.151C136.644 118.424 136.614 118.71 136.642 118.994C136.669 119.278 136.755 119.553 136.893 119.805C137.031 120.057 137.219 120.279 137.447 120.46L144.298 126L137.447 131.541C137.219 131.721 137.031 131.944 136.893 132.195C136.755 132.447 136.669 132.723 136.642 133.007C136.614 133.29 136.644 133.577 136.731 133.849C136.818 134.122 136.959 134.375 137.147 134.594C137.335 134.813 137.566 134.993 137.826 135.125C138.087 135.258 138.372 135.338 138.664 135.363C138.957 135.388 139.252 135.356 139.532 135.27C139.812 135.183 140.071 135.044 140.296 134.86L149.199 127.66C149.45 127.457 149.651 127.203 149.79 126.917C149.928 126.63 150 126.317 150 126C150 125.684 149.928 125.371 149.79 125.084C149.651 124.797 149.45 124.543 149.199 124.341ZM133.696 108.13C133.421 108.033 133.129 107.99 132.837 108.002C132.545 108.015 132.259 108.083 131.994 108.203C131.729 108.323 131.491 108.492 131.293 108.702C131.096 108.911 130.943 109.156 130.843 109.422L118.972 141.102C118.771 141.64 118.798 142.234 119.048 142.753C119.298 143.272 119.749 143.673 120.304 143.869C120.547 143.956 120.805 144 121.064 144C121.521 144 121.967 143.864 122.342 143.609C122.716 143.355 123.001 142.995 123.157 142.578L135.028 110.898C135.128 110.632 135.173 110.349 135.16 110.065C135.147 109.782 135.077 109.504 134.953 109.247C134.829 108.989 134.655 108.759 134.439 108.567C134.223 108.375 133.971 108.227 133.696 108.13Z" fill="#0D6EFC"/>
</g>
<defs>
<clipPath id="clip0_10_69">
<rect width="122" height="142" fill="white" transform="translate(92 61)"/>
</clipPath>
<clipPath id="clip1_10_69">
<rect width="122" height="142" fill="white" transform="translate(92 61)"/>
</clipPath>
</defs>
</svg>
