<svg width="229" height="285" viewBox="0 0 229 285" fill="none" xmlns="http://www.w3.org/2000/svg">
<rect x="1" y="1" width="227" height="280" rx="7" fill="#F0F0F0" stroke="#0D6EFC" stroke-width="2"/>
<path d="M101.348 211.33L0 9V282H222L101.348 211.33Z" fill="#0D6EFC"/>
<path d="M8.07422 272.746C7.58984 272.379 7.47266 272.008 7.72266 271.633L8.625 270.273C8.92188 269.828 9.35547 269.805 9.92578 270.203C10.3633 270.508 10.9336 270.824 11.6367 271.152C12.3477 271.473 13.0938 271.633 13.875 271.633C14.4219 271.633 14.9492 271.57 15.457 271.445C15.9648 271.32 16.3516 271.078 16.6172 270.719C16.8828 270.359 17.0156 269.934 17.0156 269.441C17.0156 269.09 16.957 268.781 16.8398 268.516C16.7227 268.25 16.5312 268.031 16.2656 267.859C16 267.688 15.7266 267.543 15.4453 267.426C14.9531 267.223 14.332 267.023 13.582 266.828C12.8398 266.625 12.1055 266.383 11.3789 266.102C10.7305 265.852 10.1367 265.508 9.59766 265.07C9.05859 264.633 8.64062 264.141 8.34375 263.594C8.04688 263.047 7.89844 262.316 7.89844 261.402C7.89844 260.316 8.25 259.387 8.95312 258.613C9.65625 257.84 10.4648 257.344 11.3789 257.125C12.293 256.906 13.2148 256.797 14.1445 256.797C15.0664 256.797 16.0156 256.938 16.9922 257.219C17.9766 257.5 18.7188 257.852 19.2188 258.273C19.7109 258.688 19.832 259.062 19.582 259.398L18.6328 260.676C18.3125 261.113 17.8828 261.148 17.3438 260.781C17 260.547 16.5273 260.285 15.9258 259.996C15.332 259.707 14.7109 259.562 14.0625 259.562C13.6016 259.562 13.1758 259.602 12.7852 259.68C12.4023 259.758 12.0625 259.945 11.7656 260.242C11.4688 260.539 11.3203 260.906 11.3203 261.344C11.3203 261.766 11.4297 262.109 11.6484 262.375C11.8672 262.633 12.1094 262.828 12.375 262.961C12.6406 263.086 12.9102 263.191 13.1836 263.277C14.0273 263.551 14.7812 263.793 15.4453 264.004C16.1094 264.207 16.7227 264.434 17.2852 264.684C18.0664 265.035 18.6641 265.387 19.0781 265.738C19.4922 266.09 19.832 266.57 20.0977 267.18C20.3711 267.789 20.5078 268.516 20.5078 269.359C20.5078 270.609 20.1094 271.645 19.3125 272.465C18.5156 273.277 17.6289 273.801 16.6523 274.035C15.6836 274.277 14.7383 274.398 13.8164 274.398C12.457 274.398 11.3516 274.266 10.5 274C9.64844 273.742 8.83984 273.324 8.07422 272.746ZM23.2031 267.004V257.84C23.2031 257.41 23.4766 257.195 24.0234 257.195H25.8047C26.3516 257.195 26.625 257.41 26.625 257.84V266.887C26.625 268.996 26.9336 270.316 27.5508 270.848C28.1758 271.371 28.8789 271.633 29.6602 271.633C30.4414 271.633 31.1406 271.371 31.7578 270.848C32.3828 270.316 32.6953 268.996 32.6953 266.887V257.84C32.6953 257.41 32.9688 257.195 33.5156 257.195H35.2969C35.8438 257.195 36.1172 257.41 36.1172 257.84V267.004C36.1172 269.738 35.5391 271.656 34.3828 272.758C33.2266 273.852 31.6523 274.398 29.6602 274.398C27.668 274.398 26.0938 273.852 24.9375 272.758C23.7812 271.656 23.2031 269.738 23.2031 267.004ZM40.6875 274C40.1406 274 39.8672 273.707 39.8672 273.121V258.074C39.8672 257.488 40.1406 257.195 40.6875 257.195H45.0703C47.8828 257.195 49.832 257.652 50.918 258.566C52.0117 259.48 52.5586 260.777 52.5586 262.457C52.5586 264.137 52.0117 265.434 50.918 266.348C49.832 267.262 47.8828 267.719 45.0703 267.719H43.2891V273.121C43.2891 273.707 43.0156 274 42.4688 274H40.6875ZM43.2891 264.859H45.0586C46.6211 264.859 47.6836 264.676 48.2461 264.309C48.8086 263.934 49.0898 263.316 49.0898 262.457C49.0898 261.598 48.8086 260.984 48.2461 260.617C47.6836 260.242 46.6211 260.055 45.0586 260.055H43.2891V264.859ZM54.5625 265.598C54.5625 262.902 55.2578 260.762 56.6484 259.176C58.0391 257.59 60.0234 256.797 62.6016 256.797C65.1797 256.797 67.1641 257.59 68.5547 259.176C69.9453 260.762 70.6406 262.902 70.6406 265.598C70.6406 268.293 69.9453 270.434 68.5547 272.02C67.1641 273.605 65.1797 274.398 62.6016 274.398C60.0234 274.398 58.0391 273.605 56.6484 272.02C55.2578 270.434 54.5625 268.293 54.5625 265.598ZM58.2188 265.598C58.2188 267.551 58.5664 269.047 59.2617 270.086C59.9648 271.117 61.0781 271.633 62.6016 271.633C64.125 271.633 65.2344 271.117 65.9297 270.086C66.6328 269.047 66.9844 267.551 66.9844 265.598C66.9844 263.645 66.6328 262.152 65.9297 261.121C65.2344 260.082 64.125 259.562 62.6016 259.562C61.0781 259.562 59.9648 260.082 59.2617 261.121C58.5664 262.152 58.2188 263.645 58.2188 265.598ZM74.3438 274C73.7969 274 73.5234 273.707 73.5234 273.121V258.074C73.5234 257.488 73.7969 257.195 74.3438 257.195H79.7695C82.1836 257.195 83.9453 257.57 85.0547 258.32C86.1641 259.062 86.7188 260.273 86.7188 261.953C86.7188 263.203 86.2695 264.199 85.3711 264.941C84.4727 265.684 83.332 266.176 81.9492 266.418V266.441C82.6992 266.723 83.2656 267.113 83.6484 267.613C84.0312 268.113 84.3438 268.551 84.5859 268.926L87.1641 272.992C87.5938 273.664 87.4453 274 86.7188 274H84.6797C84.25 274 83.8984 273.77 83.625 273.309L81.2578 269.359C81 268.938 80.5273 268.477 79.8398 267.977C79.1602 267.469 78.4844 267.215 77.8125 267.215H76.9453V273.121C76.9453 273.707 76.6719 274 76.125 274H74.3438ZM76.9453 264.309H79.043C80.6055 264.309 81.7148 264.133 82.3711 263.781C83.0352 263.422 83.3672 262.855 83.3672 262.082C83.3672 261.238 83.0469 260.691 82.4062 260.441C81.7734 260.184 80.8398 260.055 79.6055 260.055H76.9453V264.309ZM89.6602 260.195C89.0742 260.195 88.7812 259.941 88.7812 259.434V257.957C88.7812 257.449 89.0742 257.195 89.6602 257.195H101.707C102.293 257.195 102.586 257.449 102.586 257.957V259.434C102.586 259.941 102.293 260.195 101.707 260.195H97.3945V273.355C97.3945 273.785 97.1992 274 96.8086 274H94.5586C94.168 274 93.9727 273.785 93.9727 273.355V260.195H89.6602ZM105.68 274C105.133 274 104.859 273.707 104.859 273.121V258.074C104.859 257.488 105.133 257.195 105.68 257.195H115.734C116.32 257.195 116.613 257.449 116.613 257.957V259.34C116.613 259.848 116.32 260.102 115.734 260.102H108.281V263.828H115.113C115.699 263.828 115.992 264.082 115.992 264.59V265.973C115.992 266.48 115.699 266.734 115.113 266.734H108.281V271.094H116.109C116.695 271.094 116.988 271.348 116.988 271.855V273.238C116.988 273.746 116.695 274 116.109 274H105.68Z" fill="white"/>
<g clip-path="url(#clip0_10_87)">
<path d="M153 69.875C153 67.5212 153.803 65.2638 155.233 63.5994C156.663 61.935 158.603 61 160.625 61H206.375C208.397 61 210.337 61.935 211.767 63.5994C213.197 65.2638 214 67.5212 214 69.875V194.125C214 196.479 213.197 198.736 211.767 200.401C210.337 202.065 208.397 203 206.375 203H160.625C158.603 203 156.663 202.065 155.233 200.401C153.803 198.736 153 196.479 153 194.125V69.875ZM160.625 189.688C160.625 190.864 161.027 191.993 161.742 192.825C162.457 193.657 163.426 194.125 164.438 194.125C165.449 194.125 166.418 193.657 167.133 192.825C167.848 191.993 168.25 190.864 168.25 189.688C168.25 188.511 167.848 187.382 167.133 186.55C166.418 185.718 165.449 185.25 164.438 185.25C163.426 185.25 162.457 185.718 161.742 186.55C161.027 187.382 160.625 188.511 160.625 189.688ZM175.875 189.688C175.875 190.864 176.277 191.993 176.992 192.825C177.707 193.657 178.676 194.125 179.688 194.125C180.699 194.125 181.668 193.657 182.383 192.825C183.098 191.993 183.5 190.864 183.5 189.688C183.5 188.511 183.098 187.382 182.383 186.55C181.668 185.718 180.699 185.25 179.688 185.25C178.676 185.25 177.707 185.718 176.992 186.55C176.277 187.382 175.875 188.511 175.875 189.688ZM164.438 69.875C163.426 69.875 162.457 70.3425 161.742 71.1747C161.027 72.0069 160.625 73.1356 160.625 74.3125C160.625 75.4894 161.027 76.6181 161.742 77.4503C162.457 78.2825 163.426 78.75 164.438 78.75H202.562C203.574 78.75 204.543 78.2825 205.258 77.4503C205.973 76.6181 206.375 75.4894 206.375 74.3125C206.375 73.1356 205.973 72.0069 205.258 71.1747C204.543 70.3425 203.574 69.875 202.562 69.875H164.438ZM160.625 92.0625C160.625 93.2394 161.027 94.3681 161.742 95.2003C162.457 96.0325 163.426 96.5 164.438 96.5H202.562C203.574 96.5 204.543 96.0325 205.258 95.2003C205.973 94.3681 206.375 93.2394 206.375 92.0625C206.375 90.8856 205.973 89.7569 205.258 88.9247C204.543 88.0925 203.574 87.625 202.562 87.625H164.438C163.426 87.625 162.457 88.0925 161.742 88.9247C161.027 89.7569 160.625 90.8856 160.625 92.0625ZM103.438 78.75C100.404 78.75 97.4949 80.1526 95.35 82.6491C93.205 85.1457 92 88.5318 92 92.0625V154.188C92 157.718 93.205 161.104 95.35 163.601C97.4949 166.097 100.404 167.5 103.438 167.5H137.75V185.25H133.938C132.926 185.25 131.957 185.718 131.242 186.55C130.527 187.382 130.125 188.511 130.125 189.688C130.125 190.864 130.527 191.993 131.242 192.825C131.957 193.657 132.926 194.125 133.938 194.125H145.375V158.625H103.438C102.426 158.625 101.457 158.157 100.742 157.325C100.027 156.493 99.625 155.364 99.625 154.188V92.0625C99.625 90.8856 100.027 89.7569 100.742 88.9247C101.457 88.0925 102.426 87.625 103.438 87.625H145.375V78.75H103.438Z" fill="#0D6EFC"/>
<path d="M139.112 131.384C139.847 129.418 140.246 127.314 140.246 125.001C140.246 123.336 140.015 121.74 139.616 120.26C138.251 120.607 136.823 120.792 135.332 120.792C132.279 120.795 129.269 119.991 126.557 118.445C123.845 116.899 121.511 114.658 119.75 111.911C117.868 116.931 114.315 120.969 109.817 123.197C109.733 123.775 109.733 124.4 109.733 125.001C109.733 127.209 110.128 129.395 110.895 131.435C111.662 133.475 112.787 135.328 114.205 136.89C117.068 140.043 120.951 141.814 125 141.814C127.205 141.814 129.326 141.282 131.237 140.334C132.434 142.855 132.98 144.104 132.938 144.104C129.494 145.376 126.827 146 125 146C119.918 146 115.067 143.803 111.497 139.848C109.324 137.466 107.709 134.537 106.793 131.314H104V120.792H106.289C106.983 117.074 108.577 113.633 110.903 110.832C113.229 108.032 116.2 105.978 119.501 104.887C122.802 103.796 126.309 103.71 129.651 104.637C132.993 105.564 136.045 107.471 138.482 110.153C141.128 113.057 142.933 116.759 143.669 120.792H146V131.314H145.874L138.398 138.877L127.268 137.489V133.627H137.411L139.112 131.384ZM119.267 124.469C119.897 124.469 120.506 124.746 120.947 125.255C121.39 125.747 121.639 126.412 121.639 127.105C121.639 127.798 121.39 128.463 120.947 128.956C120.506 129.441 119.897 129.719 119.267 129.719C117.944 129.719 116.873 128.562 116.873 127.105C116.873 125.648 117.944 124.469 119.267 124.469ZM130.712 124.469C132.035 124.469 133.085 125.648 133.085 127.105C133.085 128.562 132.035 129.719 130.712 129.719C129.389 129.719 128.318 128.562 128.318 127.105C128.318 126.406 128.57 125.736 129.019 125.241C129.468 124.747 130.077 124.469 130.712 124.469Z" fill="#0D6EFC"/>
</g>
<defs>
<clipPath id="clip0_10_87">
<rect width="122" height="142" fill="white" transform="translate(92 61)"/>
</clipPath>
</defs>
</svg>
