<svg width="853" height="287" viewBox="0 0 853 287" fill="none" xmlns="http://www.w3.org/2000/svg">
<path d="M41.4629 201.14C38.1189 201.14 35.2309 200.152 32.7989 198.176C30.4429 196.124 28.9609 193.578 28.3529 190.538C28.2009 190.082 28.1249 189.626 28.1249 189.17C28.1249 188.714 28.1249 188.22 28.1249 187.688V68.786C28.0489 67.266 27.8209 65.784 27.4409 64.34C27.0609 62.82 26.8709 61.376 26.8709 60.008C26.8709 59.172 26.9849 58.412 27.2129 57.728C27.5169 57.044 28.0109 56.474 28.6949 56.018C29.3789 55.562 30.3289 55.22 31.5449 54.992C32.7609 54.688 34.3189 54.536 36.2189 54.536H76.8029C83.4909 54.536 89.9509 55.41 96.1829 57.158C102.415 58.906 108.229 61.376 113.625 64.568C119.097 67.76 124.075 71.598 128.559 76.082C133.043 80.566 136.881 85.544 140.073 91.016C143.341 96.412 145.849 102.226 147.597 108.458C149.345 114.69 150.219 121.15 150.219 127.838C150.219 134.602 149.345 141.1 147.597 147.332C145.849 153.564 143.341 159.416 140.073 164.888C136.881 170.284 133.043 175.224 128.559 179.708C124.075 184.116 119.097 187.916 113.625 191.108C108.229 194.3 102.415 196.77 96.1829 198.518C89.9509 200.266 83.4909 201.14 76.8029 201.14H41.4629ZM123.315 127.838C123.315 120.998 122.061 114.69 119.553 108.914C117.121 103.062 113.777 98.008 109.521 93.752C105.341 89.496 100.439 86.152 94.8149 83.72C89.1909 81.288 83.1869 80.034 76.8029 79.958H54.9149V174.692H76.8029C83.1869 174.54 89.1909 173.248 94.8149 170.816C100.439 168.384 105.341 165.116 109.521 161.012C113.777 156.832 117.121 151.93 119.553 146.306C122.061 140.606 123.315 134.45 123.315 127.838ZM164.198 144.824C164.198 137.072 165.68 129.814 168.644 123.05C171.608 116.21 175.636 110.244 180.728 105.152C185.896 100.06 191.862 96.032 198.626 93.068C205.466 90.104 212.762 88.622 220.514 88.622C228.266 88.622 235.524 90.104 242.288 93.068C249.128 96.032 255.094 100.06 260.186 105.152C265.354 110.244 269.42 116.21 272.384 123.05C275.348 129.814 276.83 137.072 276.83 144.824C276.83 152.576 275.348 159.872 272.384 166.712C269.42 173.552 265.354 179.518 260.186 184.61C255.094 189.702 249.128 193.73 242.288 196.694C235.524 199.658 228.266 201.14 220.514 201.14C212.762 201.14 205.466 199.658 198.626 196.694C191.862 193.73 185.896 189.702 180.728 184.61C175.636 179.518 171.608 173.552 168.644 166.712C165.68 159.872 164.198 152.576 164.198 144.824ZM191.33 144.824C191.33 149.004 192.052 152.956 193.496 156.68C195.016 160.328 197.068 163.52 199.652 166.256C202.312 168.992 205.428 171.158 209 172.754C212.572 174.35 216.41 175.148 220.514 175.148C224.618 175.148 228.418 174.35 231.914 172.754C235.486 171.158 238.564 168.992 241.148 166.256C243.808 163.52 245.898 160.328 247.418 156.68C248.938 152.956 249.698 149.004 249.698 144.824C249.698 140.72 248.938 136.844 247.418 133.196C245.898 129.472 243.808 126.242 241.148 123.506C238.564 120.77 235.486 118.604 231.914 117.008C228.418 115.412 224.618 114.614 220.514 114.614C216.41 114.614 212.572 115.412 209 117.008C205.428 118.604 202.312 120.77 199.652 123.506C197.068 126.242 195.016 129.472 193.496 133.196C192.052 136.844 191.33 140.72 191.33 144.824ZM309.933 168.65C308.109 168.65 306.361 168.308 304.689 167.624C303.093 166.94 301.687 165.99 300.471 164.774C299.255 163.482 298.267 161.962 297.507 160.214C296.823 158.466 296.481 156.49 296.481 154.286V64.112C296.481 61.908 296.823 59.894 297.507 58.07C298.191 56.246 299.141 54.688 300.357 53.396C301.573 52.028 302.979 51.002 304.575 50.318C306.247 49.558 308.033 49.178 309.933 49.178C313.885 49.178 317.115 50.584 319.623 53.396C322.131 56.132 323.385 59.704 323.385 64.112V154.286C323.385 156.49 323.005 158.466 322.245 160.214C321.561 161.962 320.611 163.482 319.395 164.774C318.179 165.99 316.735 166.94 315.063 167.624C313.467 168.308 311.757 168.65 309.933 168.65ZM324.297 197.834C324.297 199.81 323.917 201.672 323.157 203.42C322.397 205.168 321.371 206.688 320.079 207.98C318.787 209.272 317.267 210.26 315.519 210.944C313.771 211.704 311.909 212.084 309.933 212.084C307.881 212.084 305.981 211.704 304.233 210.944C302.485 210.26 300.965 209.272 299.673 207.98C298.381 206.688 297.355 205.168 296.595 203.42C295.835 201.672 295.455 199.81 295.455 197.834C295.455 195.782 295.835 193.92 296.595 192.248C297.355 190.5 298.381 189.018 299.673 187.802C300.965 186.51 302.485 185.522 304.233 184.838C305.981 184.078 307.881 183.698 309.933 183.698C311.909 183.698 313.771 184.078 315.519 184.838C317.267 185.522 318.787 186.51 320.079 187.802C321.371 189.018 322.397 190.5 323.157 192.248C323.917 193.92 324.297 195.782 324.297 197.834ZM392.804 201.14C387.636 201.14 382.278 200.494 376.73 199.202C371.182 197.834 366.014 195.858 361.226 193.274C356.514 190.69 352.486 187.536 349.142 183.812C345.874 180.088 343.936 175.832 343.328 171.044C343.176 169.22 343.442 167.548 344.126 166.028C344.886 164.432 345.912 163.102 347.204 162.038C348.572 160.974 350.092 160.252 351.764 159.872C353.436 159.416 355.146 159.454 356.894 159.986C358.642 160.442 360.428 161.658 362.252 163.634C364.076 165.534 366.28 167.586 368.864 169.79C371.448 171.918 374.602 173.856 378.326 175.604C382.05 177.352 386.724 178.226 392.348 178.226C395.464 178.454 398.39 178.416 401.126 178.112C403.938 177.732 406.408 177.162 408.536 176.402C410.664 175.566 412.336 174.502 413.552 173.21C414.768 171.918 415.376 170.398 415.376 168.65C415.376 167.054 414.426 165.61 412.526 164.318C410.626 163.026 408.118 161.734 405.002 160.442C401.886 159.15 398.352 157.82 394.4 156.452C390.448 155.084 386.382 153.564 382.202 151.892C378.022 150.144 373.956 148.206 370.004 146.078C366.052 143.95 362.518 141.518 359.402 138.782C356.286 135.97 353.778 132.778 351.878 129.206C349.978 125.634 349.028 121.568 349.028 117.008C349.028 113.588 349.978 110.13 351.878 106.634C353.854 103.138 356.742 100.022 360.542 97.286C364.342 94.474 369.016 92.194 374.564 90.446C380.188 88.622 386.61 87.71 393.83 87.71C398.922 87.71 403.862 88.166 408.65 89.078C413.514 89.99 417.922 91.396 421.874 93.296C425.902 95.12 429.322 97.476 432.134 100.364C435.022 103.176 437.112 106.482 438.404 110.282C438.86 112.486 438.632 114.462 437.72 116.21C436.884 117.882 435.706 119.25 434.186 120.314C432.742 121.378 431.07 122.1 429.17 122.48C427.346 122.784 425.636 122.708 424.04 122.252C422.368 121.644 420.62 120.732 418.796 119.516C417.048 118.3 415.11 117.046 412.982 115.754C410.93 114.462 408.65 113.284 406.142 112.22C403.71 111.08 400.974 110.32 397.934 109.94C391.474 109.18 386.344 109.522 382.544 110.966C378.744 112.334 376.844 114.614 376.844 117.806C376.844 120.542 378.478 123.012 381.746 125.216C385.014 127.344 389.118 129.434 394.058 131.486C398.998 133.538 404.318 135.704 410.018 137.984C415.718 140.188 421.038 142.734 425.978 145.622C430.918 148.51 435.022 151.892 438.29 155.768C441.558 159.568 443.192 164.09 443.192 169.334C443.192 175.11 441.748 180.012 438.86 184.04C435.972 188.068 432.172 191.374 427.46 193.958C422.748 196.466 417.352 198.29 411.272 199.43C405.268 200.57 399.112 201.14 392.804 201.14Z" fill="white"/>
<path d="M304.396 164.375C302.556 164.375 300.792 164.03 299.106 163.34C297.496 162.65 296.077 161.692 294.851 160.465C293.624 159.162 292.627 157.628 291.861 155.865C291.171 154.102 290.826 152.108 290.826 149.885V58.92C290.826 56.6967 291.171 54.665 291.861 52.825C292.551 50.985 293.509 49.4133 294.736 48.11C295.962 46.73 297.381 45.695 298.991 45.005C300.677 44.2383 302.479 43.855 304.396 43.855C308.382 43.855 311.641 45.2733 314.171 48.11C316.701 50.87 317.966 54.4733 317.966 58.92V149.885C317.966 152.108 317.582 154.102 316.816 155.865C316.126 157.628 315.167 159.162 313.941 160.465C312.714 161.692 311.257 162.65 309.571 163.34C307.961 164.03 306.236 164.375 304.396 164.375ZM318.886 193.815C318.886 195.808 318.502 197.687 317.736 199.45C316.969 201.213 315.934 202.747 314.631 204.05C313.327 205.353 311.794 206.35 310.031 207.04C308.267 207.807 306.389 208.19 304.396 208.19C302.326 208.19 300.409 207.807 298.646 207.04C296.882 206.35 295.349 205.353 294.046 204.05C292.742 202.747 291.707 201.213 290.941 199.45C290.174 197.687 289.791 195.808 289.791 193.815C289.791 191.745 290.174 189.867 290.941 188.18C291.707 186.417 292.742 184.922 294.046 183.695C295.349 182.392 296.882 181.395 298.646 180.705C300.409 179.938 302.326 179.555 304.396 179.555C306.389 179.555 308.267 179.938 310.031 180.705C311.794 181.395 313.327 182.392 314.631 183.695C315.934 184.922 316.969 186.417 317.736 188.18C318.502 189.867 318.886 191.745 318.886 193.815Z" fill="#FF914D"/>
<path d="M491.134 201.14C487.79 201.14 484.902 200.152 482.47 198.176C480.114 196.124 478.632 193.578 478.024 190.538C477.872 190.082 477.796 189.626 477.796 189.17C477.796 188.714 477.796 188.22 477.796 187.688V68.786C477.72 67.266 477.492 65.784 477.112 64.34C476.732 62.82 476.542 61.376 476.542 60.008C476.542 59.172 476.656 58.412 476.884 57.728C477.188 57.044 477.682 56.474 478.366 56.018C479.05 55.562 480 55.22 481.216 54.992C482.432 54.688 483.99 54.536 485.89 54.536H526.474C533.162 54.536 539.622 55.41 545.854 57.158C552.086 58.906 557.9 61.376 563.296 64.568C568.768 67.76 573.746 71.598 578.23 76.082C582.714 80.566 586.552 85.544 589.744 91.016C593.012 96.412 595.52 102.226 597.268 108.458C599.016 114.69 599.89 121.15 599.89 127.838C599.89 134.602 599.016 141.1 597.268 147.332C595.52 153.564 593.012 159.416 589.744 164.888C586.552 170.284 582.714 175.224 578.23 179.708C573.746 184.116 568.768 187.916 563.296 191.108C557.9 194.3 552.086 196.77 545.854 198.518C539.622 200.266 533.162 201.14 526.474 201.14H491.134ZM572.986 127.838C572.986 120.998 571.732 114.69 569.224 108.914C566.792 103.062 563.448 98.008 559.192 93.752C555.012 89.496 550.11 86.152 544.486 83.72C538.862 81.288 532.858 80.034 526.474 79.958H504.586V174.692H526.474C532.858 174.54 538.862 173.248 544.486 170.816C550.11 168.384 555.012 165.116 559.192 161.012C563.448 156.832 566.792 151.93 569.224 146.306C571.732 140.606 572.986 134.45 572.986 127.838ZM667.905 201.14C660.153 201.14 652.857 199.658 646.017 196.694C639.253 193.73 633.287 189.74 628.119 184.724C623.027 179.632 618.999 173.666 616.035 166.826C613.071 159.986 611.589 152.69 611.589 144.938C611.589 136.73 613.109 129.206 616.149 122.366C619.189 115.45 623.331 109.522 628.575 104.582C633.819 99.566 639.899 95.652 646.815 92.84C653.731 90.028 661.065 88.622 668.817 88.622C676.569 88.622 683.789 89.99 690.477 92.726C697.241 95.462 703.131 99.262 708.147 104.126C713.163 108.99 717.115 114.766 720.003 121.454C722.891 128.142 724.335 135.4 724.335 143.228C724.335 147.028 723.347 149.574 721.371 150.866C719.395 152.158 716.013 152.804 711.225 152.804H639.177C639.481 156.3 640.431 159.644 642.027 162.836C643.699 165.952 645.827 168.726 648.411 171.158C650.995 173.514 653.959 175.414 657.303 176.858C660.647 178.302 664.219 179.024 668.019 179.024C671.667 179.024 675.201 178.416 678.621 177.2C682.041 175.908 685.119 174.084 687.855 171.728C689.451 170.816 691.351 170.322 693.555 170.246C695.759 170.17 697.887 170.512 699.939 171.272C701.991 172.032 703.739 173.286 705.183 175.034C706.627 176.706 707.349 178.834 707.349 181.418C707.349 184.382 706.133 187.08 703.701 189.512C701.269 191.944 698.153 194.034 694.353 195.782C690.553 197.454 686.297 198.784 681.585 199.772C676.873 200.684 672.313 201.14 667.905 201.14ZM668.817 110.51C665.093 110.51 661.521 111.156 658.101 112.448C654.681 113.74 651.641 115.526 648.981 117.806C646.321 120.086 644.079 122.784 642.255 125.9C640.507 128.94 639.405 132.284 638.949 135.932H697.203C696.899 132.284 695.911 128.94 694.239 125.9C692.643 122.784 690.553 120.086 687.969 117.806C685.461 115.526 682.535 113.74 679.191 112.448C675.923 111.156 672.465 110.51 668.817 110.51ZM792.341 193.502C791.049 196.162 789.187 198.138 786.755 199.43C784.399 200.722 781.929 201.292 779.345 201.14C776.913 201.292 774.633 200.684 772.505 199.316C770.377 197.948 768.667 196.048 767.375 193.616L728.273 107.774C727.437 106.102 726.943 104.392 726.791 102.644C726.715 100.82 726.943 99.11 727.475 97.514C728.007 95.842 728.843 94.36 729.983 93.068C731.123 91.7 732.567 90.598 734.315 89.762C735.987 88.926 737.697 88.47 739.445 88.394C741.269 88.318 742.979 88.584 744.575 89.192C746.171 89.724 747.653 90.598 749.021 91.814C750.389 92.954 751.491 94.36 752.327 96.032L779.573 162.038L807.161 96.032C807.845 94.36 808.833 92.916 810.125 91.7C811.493 90.484 812.975 89.61 814.571 89.078C816.243 88.47 817.991 88.242 819.815 88.394C821.639 88.47 823.387 88.926 825.059 89.762C826.731 90.522 828.175 91.548 829.391 92.84C830.607 94.132 831.481 95.576 832.013 97.172C832.621 98.768 832.887 100.478 832.811 102.302C832.811 104.05 832.431 105.76 831.671 107.432L792.341 193.502Z" fill="white"/>
</svg>
