<svg width="229" height="285" viewBox="0 0 229 285" fill="none" xmlns="http://www.w3.org/2000/svg">
<rect x="1" y="1" width="227" height="280" rx="7" fill="#F0F0F0" stroke="#0D6EFC" stroke-width="2"/>
<path d="M101.348 211.33L0 9V282H222L101.348 211.33Z" fill="#0D6EFC"/>
<path d="M8.69531 274C8.14844 274 7.875 273.707 7.875 273.121V258.074C7.875 257.488 8.14844 257.195 8.69531 257.195H12.0938C12.5469 257.195 12.8711 257.508 13.0664 258.133L16.2422 268.41C16.3828 268.855 16.4805 269.223 16.5352 269.512C16.5898 269.793 16.6367 270.129 16.6758 270.52H16.7461C16.7852 270.129 16.832 269.793 16.8867 269.512C16.9414 269.223 17.0391 268.855 17.1797 268.41L20.3555 258.133C20.5508 257.508 20.875 257.195 21.3281 257.195H24.7266C25.2734 257.195 25.5469 257.488 25.5469 258.074V273.121C25.5469 273.707 25.2734 274 24.7266 274H22.9453C22.3984 274 22.125 273.707 22.125 273.121V263.441C22.125 262.973 22.1445 262.504 22.1836 262.035H22.1016L18.7148 273.051C18.5195 273.684 18.1836 274 17.707 274H15.7148C15.2383 274 14.9023 273.684 14.707 273.051L11.3203 262.035H11.2383C11.2773 262.504 11.2969 262.973 11.2969 263.441V273.121C11.2969 273.707 11.0234 274 10.4766 274H8.69531ZM28.7695 274C28.207 274 28.0234 273.742 28.2188 273.227L33.9609 258.145C34.2031 257.512 34.5703 257.195 35.0625 257.195H36.7031C37.1953 257.195 37.5625 257.512 37.8047 258.145L43.5469 273.227C43.7422 273.742 43.5586 274 42.9961 274H41.1328C40.6172 274 40.2578 273.73 40.0547 273.191L38.8594 270.039H32.9062L31.7109 273.191C31.5078 273.73 31.1484 274 30.6328 274H28.7695ZM33.9961 267.133H37.7695L36.3281 263.406C36.1562 262.969 36.0508 262.652 36.0117 262.457C35.9805 262.254 35.9453 261.957 35.9062 261.566H35.8594C35.8203 261.957 35.7812 262.254 35.7422 262.457C35.7109 262.652 35.6094 262.969 35.4375 263.406L33.9961 267.133ZM46.4531 274C45.9062 274 45.6328 273.707 45.6328 273.121V258.074C45.6328 257.488 45.9062 257.195 46.4531 257.195H48.1875C48.8594 257.195 49.3672 257.469 49.7109 258.016L55.6875 267.613H55.7695C55.7305 267.145 55.7109 266.676 55.7109 266.207V258.074C55.7109 257.488 55.9844 257.195 56.5312 257.195H58.3125C58.8594 257.195 59.1328 257.488 59.1328 258.074V273.121C59.1328 273.707 58.8594 274 58.3125 274H56.6953C56.0234 274 55.5156 273.727 55.1719 273.18L49.0781 263.406H48.9961C49.0352 263.875 49.0547 264.344 49.0547 264.812V273.121C49.0547 273.707 48.7812 274 48.2344 274H46.4531ZM62.8828 267.004V257.84C62.8828 257.41 63.1562 257.195 63.7031 257.195H65.4844C66.0312 257.195 66.3047 257.41 66.3047 257.84V266.887C66.3047 268.996 66.6133 270.316 67.2305 270.848C67.8555 271.371 68.5586 271.633 69.3398 271.633C70.1211 271.633 70.8203 271.371 71.4375 270.848C72.0625 270.316 72.375 268.996 72.375 266.887V257.84C72.375 257.41 72.6484 257.195 73.1953 257.195H74.9766C75.5234 257.195 75.7969 257.41 75.7969 257.84V267.004C75.7969 269.738 75.2188 271.656 74.0625 272.758C72.9062 273.852 71.332 274.398 69.3398 274.398C67.3477 274.398 65.7734 273.852 64.6172 272.758C63.4609 271.656 62.8828 269.738 62.8828 267.004ZM78.9492 260.195C78.3633 260.195 78.0703 259.941 78.0703 259.434V257.957C78.0703 257.449 78.3633 257.195 78.9492 257.195H90.9961C91.582 257.195 91.875 257.449 91.875 257.957V259.434C91.875 259.941 91.582 260.195 90.9961 260.195H86.6836V273.355C86.6836 273.785 86.4883 274 86.0977 274H83.8477C83.457 274 83.2617 273.785 83.2617 273.355V260.195H78.9492ZM94.9688 274C94.4219 274 94.1484 273.707 94.1484 273.121V258.074C94.1484 257.488 94.4219 257.195 94.9688 257.195H105.023C105.609 257.195 105.902 257.449 105.902 257.957V259.34C105.902 259.848 105.609 260.102 105.023 260.102H97.5703V263.828H104.402C104.988 263.828 105.281 264.082 105.281 264.59V265.973C105.281 266.48 104.988 266.734 104.402 266.734H97.5703V271.094H105.398C105.984 271.094 106.277 271.348 106.277 271.855V273.238C106.277 273.746 105.984 274 105.398 274H94.9688ZM109.969 274C109.422 274 109.148 273.707 109.148 273.121V258.074C109.148 257.488 109.422 257.195 109.969 257.195H111.703C112.375 257.195 112.883 257.469 113.227 258.016L119.203 267.613H119.285C119.246 267.145 119.227 266.676 119.227 266.207V258.074C119.227 257.488 119.5 257.195 120.047 257.195H121.828C122.375 257.195 122.648 257.488 122.648 258.074V273.121C122.648 273.707 122.375 274 121.828 274H120.211C119.539 274 119.031 273.727 118.688 273.18L112.594 263.406H112.512C112.551 263.875 112.57 264.344 112.57 264.812V273.121C112.57 273.707 112.297 274 111.75 274H109.969ZM125.531 265.598C125.531 262.902 126.215 260.762 127.582 259.176C128.949 257.59 130.922 256.797 133.5 256.797C134.984 256.797 136.242 257.027 137.273 257.488C138.305 257.949 139.031 258.617 139.453 259.492C139.734 260.07 139.688 260.461 139.312 260.664L137.906 261.414C137.414 261.68 137.008 261.531 136.688 260.969C136.484 260.609 136.105 260.285 135.551 259.996C135.004 259.707 134.359 259.562 133.617 259.562C131.977 259.562 130.828 260.082 130.172 261.121C129.516 262.152 129.188 263.645 129.188 265.598C129.188 267.551 129.516 269.047 130.172 270.086C130.828 271.117 131.977 271.633 133.617 271.633C134.5 271.633 135.242 271.434 135.844 271.035C136.453 270.637 136.875 270.258 137.109 269.898C137.492 269.312 137.898 269.164 138.328 269.453L139.734 270.391C140.117 270.648 140.156 271.039 139.852 271.562C139.398 272.344 138.621 273.012 137.52 273.566C136.418 274.121 135.078 274.398 133.5 274.398C130.961 274.398 128.996 273.605 127.605 272.02C126.223 270.434 125.531 268.293 125.531 265.598ZM130.957 278.699C130.738 278.637 130.668 278.473 130.746 278.207L130.898 277.68C130.984 277.391 131.164 277.301 131.438 277.41C131.703 277.512 132.016 277.562 132.375 277.562C132.695 277.562 132.945 277.508 133.125 277.398C133.312 277.297 133.406 277.133 133.406 276.906C133.406 276.711 133.309 276.562 133.113 276.461C132.926 276.359 132.621 276.309 132.199 276.309H131.953C131.688 276.309 131.555 276.172 131.555 275.898C131.555 275.578 131.609 275.312 131.719 275.102L132.281 274C132.367 273.828 132.523 273.742 132.75 273.742H133.723C133.957 273.742 134.031 273.828 133.945 274L133.418 275.031V275.066C134.09 275.16 134.559 275.359 134.824 275.664C135.09 275.969 135.223 276.367 135.223 276.859C135.223 277.609 134.965 278.137 134.449 278.441C133.934 278.754 133.285 278.91 132.504 278.91C131.965 278.91 131.449 278.84 130.957 278.699ZM145.16 255.449C144.895 255.285 144.863 255.035 145.066 254.699C145.355 254.223 145.715 253.836 146.145 253.539C146.574 253.234 147.172 253.082 147.938 253.082C148.484 253.082 149.125 253.262 149.859 253.621C150.594 253.98 151.113 254.16 151.418 254.16C151.691 254.16 151.953 254.094 152.203 253.961C152.461 253.828 152.652 253.664 152.777 253.469C152.988 253.141 153.223 253.055 153.48 253.211L154.043 253.551C154.309 253.715 154.34 253.965 154.137 254.301C153.848 254.777 153.488 255.168 153.059 255.473C152.629 255.77 152.031 255.918 151.266 255.918C150.688 255.918 150.047 255.738 149.344 255.379C148.641 255.02 148.121 254.84 147.785 254.84C147.512 254.84 147.246 254.906 146.988 255.039C146.738 255.172 146.551 255.336 146.426 255.531C146.215 255.859 145.98 255.945 145.723 255.789L145.16 255.449ZM142.488 274C141.926 274 141.742 273.742 141.938 273.227L147.68 258.145C147.922 257.512 148.289 257.195 148.781 257.195H150.422C150.914 257.195 151.281 257.512 151.523 258.145L157.266 273.227C157.461 273.742 157.277 274 156.715 274H154.852C154.336 274 153.977 273.73 153.773 273.191L152.578 270.039H146.625L145.43 273.191C145.227 273.73 144.867 274 144.352 274H142.488ZM147.715 267.133H151.488L150.047 263.406C149.875 262.969 149.77 262.652 149.73 262.457C149.699 262.254 149.664 261.957 149.625 261.566H149.578C149.539 261.957 149.5 262.254 149.461 262.457C149.43 262.652 149.328 262.969 149.156 263.406L147.715 267.133ZM158.484 265.598C158.484 262.902 159.18 260.762 160.57 259.176C161.961 257.59 163.945 256.797 166.523 256.797C169.102 256.797 171.086 257.59 172.477 259.176C173.867 260.762 174.562 262.902 174.562 265.598C174.562 268.293 173.867 270.434 172.477 272.02C171.086 273.605 169.102 274.398 166.523 274.398C163.945 274.398 161.961 273.605 160.57 272.02C159.18 270.434 158.484 268.293 158.484 265.598ZM162.141 265.598C162.141 267.551 162.488 269.047 163.184 270.086C163.887 271.117 165 271.633 166.523 271.633C168.047 271.633 169.156 271.117 169.852 270.086C170.555 269.047 170.906 267.551 170.906 265.598C170.906 263.645 170.555 262.152 169.852 261.121C169.156 260.082 168.047 259.562 166.523 259.562C165 259.562 163.887 260.082 163.184 261.121C162.488 262.152 162.141 263.645 162.141 265.598Z" fill="white"/>
<g clip-path="url(#clip0_10_79)">
<path d="M153 69.875C153 67.5212 153.803 65.2638 155.233 63.5994C156.663 61.935 158.603 61 160.625 61H206.375C208.397 61 210.337 61.935 211.767 63.5994C213.197 65.2638 214 67.5212 214 69.875V194.125C214 196.479 213.197 198.736 211.767 200.401C210.337 202.065 208.397 203 206.375 203H160.625C158.603 203 156.663 202.065 155.233 200.401C153.803 198.736 153 196.479 153 194.125V69.875ZM160.625 189.688C160.625 190.864 161.027 191.993 161.742 192.825C162.457 193.657 163.426 194.125 164.438 194.125C165.449 194.125 166.418 193.657 167.133 192.825C167.848 191.993 168.25 190.864 168.25 189.688C168.25 188.511 167.848 187.382 167.133 186.55C166.418 185.718 165.449 185.25 164.438 185.25C163.426 185.25 162.457 185.718 161.742 186.55C161.027 187.382 160.625 188.511 160.625 189.688ZM175.875 189.688C175.875 190.864 176.277 191.993 176.992 192.825C177.707 193.657 178.676 194.125 179.688 194.125C180.699 194.125 181.668 193.657 182.383 192.825C183.098 191.993 183.5 190.864 183.5 189.688C183.5 188.511 183.098 187.382 182.383 186.55C181.668 185.718 180.699 185.25 179.688 185.25C178.676 185.25 177.707 185.718 176.992 186.55C176.277 187.382 175.875 188.511 175.875 189.688ZM164.438 69.875C163.426 69.875 162.457 70.3425 161.742 71.1747C161.027 72.0069 160.625 73.1356 160.625 74.3125C160.625 75.4894 161.027 76.6181 161.742 77.4503C162.457 78.2825 163.426 78.75 164.438 78.75H202.562C203.574 78.75 204.543 78.2825 205.258 77.4503C205.973 76.6181 206.375 75.4894 206.375 74.3125C206.375 73.1356 205.973 72.0069 205.258 71.1747C204.543 70.3425 203.574 69.875 202.562 69.875H164.438ZM160.625 92.0625C160.625 93.2394 161.027 94.3681 161.742 95.2003C162.457 96.0325 163.426 96.5 164.438 96.5H202.562C203.574 96.5 204.543 96.0325 205.258 95.2003C205.973 94.3681 206.375 93.2394 206.375 92.0625C206.375 90.8856 205.973 89.7569 205.258 88.9247C204.543 88.0925 203.574 87.625 202.562 87.625H164.438C163.426 87.625 162.457 88.0925 161.742 88.9247C161.027 89.7569 160.625 90.8856 160.625 92.0625ZM103.438 78.75C100.404 78.75 97.4949 80.1526 95.35 82.6491C93.205 85.1457 92 88.5318 92 92.0625V154.188C92 157.718 93.205 161.104 95.35 163.601C97.4949 166.097 100.404 167.5 103.438 167.5H137.75V185.25H133.938C132.926 185.25 131.957 185.718 131.242 186.55C130.527 187.382 130.125 188.511 130.125 189.688C130.125 190.864 130.527 191.993 131.242 192.825C131.957 193.657 132.926 194.125 133.938 194.125H145.375V158.625H103.438C102.426 158.625 101.457 158.157 100.742 157.325C100.027 156.493 99.625 155.364 99.625 154.188V92.0625C99.625 90.8856 100.027 89.7569 100.742 88.9247C101.457 88.0925 102.426 87.625 103.438 87.625H145.375V78.75H103.438Z" fill="#0D6EFC"/>
<path d="M108.093 104L106 106.207L109.687 112.93L112.078 112.56L126.671 127.951L125.426 129.212C124.789 129.884 124.789 130.903 125.426 131.575L126.074 132.259C126.711 132.932 127.687 132.932 128.165 132.259L130.058 134.254C129.899 135.263 130.058 136.461 130.855 137.302L139.472 146.336C141.225 148.185 144.094 148.185 145.848 146.336C147.92 144.319 147.9 141.304 146.147 139.455L137.58 130.367C136.783 129.526 135.647 129.19 134.69 129.526L132.597 127.531C133.076 126.859 133.076 125.83 132.597 125.324L132 124.696C131.855 124.536 131.681 124.41 131.488 124.323C131.296 124.236 131.089 124.192 130.879 124.192C130.67 124.192 130.463 124.236 130.27 124.323C130.078 124.41 129.904 124.536 129.759 124.696L128.713 125.798L114.119 110.409L114.467 107.888L108.093 104ZM139.174 104.052C136.029 103.776 131.859 105.975 129.909 107.886C127.508 110.417 127.9 113.727 129.808 116.922L126.423 120.494L128.814 123.329C130.089 122.153 131.969 122.153 133.245 123.329L133.893 124.012L134.043 124.17L135.438 122.699C138.32 124.486 141.319 124.743 143.607 122.331C145.838 120.146 148.258 114.757 147.142 111.564L142.66 116.448C142.022 117.12 141.056 117.12 140.419 116.448L135.785 111.564C135.634 111.411 135.514 111.227 135.432 111.024C135.35 110.821 135.307 110.603 135.307 110.382C135.307 110.161 135.35 109.943 135.432 109.74C135.514 109.537 135.634 109.353 135.785 109.2L140.42 104.316C140.022 104.168 139.623 104.092 139.174 104.052ZM121.641 125.01L115.861 131.103C115.24 130.958 114.606 130.888 113.97 130.893C109.507 130.893 106 134.591 106 139.297C106 144.003 109.507 147.701 113.97 147.701C118.432 147.701 121.939 144.003 121.939 139.297C121.939 138.435 121.81 137.606 121.59 136.828L124.977 133.256L124.48 132.574C123.205 131.229 123.214 129.192 124.33 127.846L121.641 125.01ZM133.994 132.68C134.193 132.68 134.381 132.72 134.54 132.89L143.956 142.817C144.274 143.153 144.274 143.687 143.956 144.023C143.637 144.359 143.127 144.359 142.808 144.023L133.396 134.096C133.077 133.76 133.077 133.226 133.396 132.89C133.555 132.722 133.794 132.68 133.994 132.68ZM115.066 134.935L118.104 138.141L117.007 142.499L112.875 143.655L109.835 140.45L110.932 136.092L115.066 134.935Z" fill="#0D6EFC"/>
</g>
<defs>
<clipPath id="clip0_10_79">
<rect width="122" height="142" fill="white" transform="translate(92 61)"/>
</clipPath>
</defs>
</svg>
