<svg width="229" height="282" viewBox="0 0 229 282" fill="none" xmlns="http://www.w3.org/2000/svg">
<rect x="1" y="1" width="227" height="280" rx="7" fill="#F0F0F0" stroke="#0D6EFC" stroke-width="2"/>
<path d="M101.348 211.33L0 9V282H222L101.348 211.33Z" fill="#0D6EFC"/>
<g clip-path="url(#clip0_10_79)">
<path d="M153 69.875C153 67.5212 153.803 65.2638 155.233 63.5994C156.663 61.935 158.603 61 160.625 61H206.375C208.397 61 210.337 61.935 211.767 63.5994C213.197 65.2638 214 67.5212 214 69.875V194.125C214 196.479 213.197 198.736 211.767 200.401C210.337 202.065 208.397 203 206.375 203H160.625C158.603 203 156.663 202.065 155.233 200.401C153.803 198.736 153 196.479 153 194.125V69.875ZM160.625 189.688C160.625 190.864 161.027 191.993 161.742 192.825C162.457 193.657 163.426 194.125 164.438 194.125C165.449 194.125 166.418 193.657 167.133 192.825C167.848 191.993 168.25 190.864 168.25 189.688C168.25 188.511 167.848 187.382 167.133 186.55C166.418 185.718 165.449 185.25 164.438 185.25C163.426 185.25 162.457 185.718 161.742 186.55C161.027 187.382 160.625 188.511 160.625 189.688ZM175.875 189.688C175.875 190.864 176.277 191.993 176.992 192.825C177.707 193.657 178.676 194.125 179.688 194.125C180.699 194.125 181.668 193.657 182.383 192.825C183.098 191.993 183.5 190.864 183.5 189.688C183.5 188.511 183.098 187.382 182.383 186.55C181.668 185.718 180.699 185.25 179.688 185.25C178.676 185.25 177.707 185.718 176.992 186.55C176.277 187.382 175.875 188.511 175.875 189.688ZM164.438 69.875C163.426 69.875 162.457 70.3425 161.742 71.1747C161.027 72.0069 160.625 73.1356 160.625 74.3125C160.625 75.4894 161.027 76.6181 161.742 77.4503C162.457 78.2825 163.426 78.75 164.438 78.75H202.562C203.574 78.75 204.543 78.2825 205.258 77.4503C205.973 76.6181 206.375 75.4894 206.375 74.3125C206.375 73.1356 205.973 72.0069 205.258 71.1747C204.543 70.3425 203.574 69.875 202.562 69.875H164.438ZM160.625 92.0625C160.625 93.2394 161.027 94.3681 161.742 95.2003C162.457 96.0325 163.426 96.5 164.438 96.5H202.562C203.574 96.5 204.543 96.0325 205.258 95.2003C205.973 94.3681 206.375 93.2394 206.375 92.0625C206.375 90.8856 205.973 89.7569 205.258 88.9247C204.543 88.0925 203.574 87.625 202.562 87.625H164.438C163.426 87.625 162.457 88.0925 161.742 88.9247C161.027 89.7569 160.625 90.8856 160.625 92.0625ZM103.438 78.75C100.404 78.75 97.4949 80.1526 95.35 82.6491C93.205 85.1457 92 88.5318 92 92.0625V154.188C92 157.718 93.205 161.104 95.35 163.601C97.4949 166.097 100.404 167.5 103.438 167.5H137.75V185.25H133.938C132.926 185.25 131.957 185.718 131.242 186.55C130.527 187.382 130.125 188.511 130.125 189.688C130.125 190.864 130.527 191.993 131.242 192.825C131.957 193.657 132.926 194.125 133.938 194.125H145.375V158.625H103.438C102.426 158.625 101.457 158.157 100.742 157.325C100.027 156.493 99.625 155.364 99.625 154.188V92.0625C99.625 90.8856 100.027 89.7569 100.742 88.9247C101.457 88.0925 102.426 87.625 103.438 87.625H145.375V78.75H103.438Z" fill="#0D6EFC"/>
<path d="M108.093 104L106 106.207L109.687 112.93L112.078 112.56L126.671 127.951L125.426 129.212C124.789 129.884 124.789 130.903 125.426 131.575L126.074 132.259C126.711 132.932 127.687 132.932 128.165 132.259L130.058 134.254C129.899 135.263 130.058 136.461 130.855 137.302L139.472 146.336C141.225 148.185 144.094 148.185 145.848 146.336C147.92 144.319 147.9 141.304 146.147 139.455L137.58 130.367C136.783 129.526 135.647 129.19 134.69 129.526L132.597 127.531C133.076 126.859 133.076 125.83 132.597 125.324L132 124.696C131.855 124.536 131.681 124.41 131.488 124.323C131.296 124.236 131.089 124.192 130.879 124.192C130.67 124.192 130.463 124.236 130.27 124.323C130.078 124.41 129.904 124.536 129.759 124.696L128.713 125.798L114.119 110.409L114.467 107.888L108.093 104ZM139.174 104.052C136.029 103.776 131.859 105.975 129.909 107.886C127.508 110.417 127.9 113.727 129.808 116.922L126.423 120.494L128.814 123.329C130.089 122.153 131.969 122.153 133.245 123.329L133.893 124.012L134.043 124.17L135.438 122.699C138.32 124.486 141.319 124.743 143.607 122.331C145.838 120.146 148.258 114.757 147.142 111.564L142.66 116.448C142.022 117.12 141.056 117.12 140.419 116.448L135.785 111.564C135.634 111.411 135.514 111.227 135.432 111.024C135.35 110.821 135.307 110.603 135.307 110.382C135.307 110.161 135.35 109.943 135.432 109.74C135.514 109.537 135.634 109.353 135.785 109.2L140.42 104.316C140.022 104.168 139.623 104.092 139.174 104.052ZM121.641 125.01L115.861 131.103C115.24 130.958 114.606 130.888 113.97 130.893C109.507 130.893 106 134.591 106 139.297C106 144.003 109.507 147.701 113.97 147.701C118.432 147.701 121.939 144.003 121.939 139.297C121.939 138.435 121.81 137.606 121.59 136.828L124.977 133.256L124.48 132.574C123.205 131.229 123.214 129.192 124.33 127.846L121.641 125.01ZM133.994 132.68C134.193 132.68 134.381 132.72 134.54 132.89L143.956 142.817C144.274 143.153 144.274 143.687 143.956 144.023C143.637 144.359 143.127 144.359 142.808 144.023L133.396 134.096C133.077 133.76 133.077 133.226 133.396 132.89C133.555 132.722 133.794 132.68 133.994 132.68ZM115.066 134.935L118.104 138.141L117.007 142.499L112.875 143.655L109.835 140.45L110.932 136.092L115.066 134.935Z" fill="#0D6EFC"/>
</g>
<defs>
<clipPath id="clip0_10_79">
<rect width="122" height="142" fill="white" transform="translate(92 61)"/>
</clipPath>
</defs>
</svg>
