<?xml version="1.0" standalone="no"?>
<!DOCTYPE svg PUBLIC "-//W3C//DTD SVG 20010904//EN"
 "http://www.w3.org/TR/2001/REC-SVG-20010904/DTD/svg10.dtd">
<svg version="1.0" xmlns="http://www.w3.org/2000/svg"
 width="663.000000pt" height="663.000000pt" viewBox="0 0 663.000000 663.000000"
 preserveAspectRatio="xMidYMid meet">
<metadata>
Created by potrace 1.14, written by Peter Selinger 2001-2017
</metadata>
<g transform="translate(0.000000,663.000000) scale(0.100000,-0.100000)"
fill="#000000" stroke="none">
<path d="M3099 6626 c-2 -2 -42 -7 -89 -10 -86 -7 -140 -14 -310 -42 -19 -4
-98 -22 -175 -41 -77 -19 -147 -36 -155 -38 -38 -9 -272 -93 -345 -125 -60
-26 -222 -102 -235 -110 -8 -6 -26 -16 -40 -22 -56 -28 -231 -135 -320 -196
-471 -327 -846 -764 -1094 -1275 -77 -158 -114 -249 -171 -422 -59 -176 -112
-403 -130 -551 -3 -27 -8 -58 -10 -69 -26 -126 -27 -627 0 -819 2 -17 7 -51
10 -76 7 -64 62 -325 81 -390 105 -355 265 -711 421 -932 18 -26 33 -52 33
-57 0 -5 4 -11 8 -13 5 -2 23 -25 42 -53 34 -49 186 -240 218 -274 10 -10 49
-51 88 -92 66 -69 130 -130 232 -222 160 -144 489 -358 723 -471 232 -112 577
-228 779 -261 160 -27 290 -46 360 -52 167 -15 551 -9 700 11 14 2 49 7 79 11
30 4 63 9 75 11 12 3 44 9 71 14 28 6 59 12 70 14 154 30 424 116 610 194 80
33 342 170 422 219 299 186 596 443 802 693 30 36 57 67 61 70 12 9 199 274
215 305 18 34 38 68 45 75 18 18 146 271 194 383 108 252 205 597 231 822 4
32 9 68 11 80 19 97 26 556 11 710 -55 555 -249 1095 -555 1545 -258 379 -602
713 -970 943 -43 26 -84 52 -92 57 -182 116 -516 259 -780 334 -110 31 -399
93 -440 94 -14 0 -71 8 -135 17 -35 6 -541 15 -546 11z"/>
</g>
</svg>
