<svg width="229" height="282" viewBox="0 0 229 282" fill="none" xmlns="http://www.w3.org/2000/svg">
<rect x="1" y="1" width="227" height="280" rx="7" fill="#F0F0F0" stroke="#0D6EFC" stroke-width="2"/>
<path d="M101.348 211.33L0 9V282H222L101.348 211.33Z" fill="#0D6EFC"/>
<g clip-path="url(#clip0_10_87)">
<path d="M153 69.875C153 67.5212 153.803 65.2638 155.233 63.5994C156.663 61.935 158.603 61 160.625 61H206.375C208.397 61 210.337 61.935 211.767 63.5994C213.197 65.2638 214 67.5212 214 69.875V194.125C214 196.479 213.197 198.736 211.767 200.401C210.337 202.065 208.397 203 206.375 203H160.625C158.603 203 156.663 202.065 155.233 200.401C153.803 198.736 153 196.479 153 194.125V69.875ZM160.625 189.688C160.625 190.864 161.027 191.993 161.742 192.825C162.457 193.657 163.426 194.125 164.438 194.125C165.449 194.125 166.418 193.657 167.133 192.825C167.848 191.993 168.25 190.864 168.25 189.688C168.25 188.511 167.848 187.382 167.133 186.55C166.418 185.718 165.449 185.25 164.438 185.25C163.426 185.25 162.457 185.718 161.742 186.55C161.027 187.382 160.625 188.511 160.625 189.688ZM175.875 189.688C175.875 190.864 176.277 191.993 176.992 192.825C177.707 193.657 178.676 194.125 179.688 194.125C180.699 194.125 181.668 193.657 182.383 192.825C183.098 191.993 183.5 190.864 183.5 189.688C183.5 188.511 183.098 187.382 182.383 186.55C181.668 185.718 180.699 185.25 179.688 185.25C178.676 185.25 177.707 185.718 176.992 186.55C176.277 187.382 175.875 188.511 175.875 189.688ZM164.438 69.875C163.426 69.875 162.457 70.3425 161.742 71.1747C161.027 72.0069 160.625 73.1356 160.625 74.3125C160.625 75.4894 161.027 76.6181 161.742 77.4503C162.457 78.2825 163.426 78.75 164.438 78.75H202.562C203.574 78.75 204.543 78.2825 205.258 77.4503C205.973 76.6181 206.375 75.4894 206.375 74.3125C206.375 73.1356 205.973 72.0069 205.258 71.1747C204.543 70.3425 203.574 69.875 202.562 69.875H164.438ZM160.625 92.0625C160.625 93.2394 161.027 94.3681 161.742 95.2003C162.457 96.0325 163.426 96.5 164.438 96.5H202.562C203.574 96.5 204.543 96.0325 205.258 95.2003C205.973 94.3681 206.375 93.2394 206.375 92.0625C206.375 90.8856 205.973 89.7569 205.258 88.9247C204.543 88.0925 203.574 87.625 202.562 87.625H164.438C163.426 87.625 162.457 88.0925 161.742 88.9247C161.027 89.7569 160.625 90.8856 160.625 92.0625ZM103.438 78.75C100.404 78.75 97.4949 80.1526 95.35 82.6491C93.205 85.1457 92 88.5318 92 92.0625V154.188C92 157.718 93.205 161.104 95.35 163.601C97.4949 166.097 100.404 167.5 103.438 167.5H137.75V185.25H133.938C132.926 185.25 131.957 185.718 131.242 186.55C130.527 187.382 130.125 188.511 130.125 189.688C130.125 190.864 130.527 191.993 131.242 192.825C131.957 193.657 132.926 194.125 133.938 194.125H145.375V158.625H103.438C102.426 158.625 101.457 158.157 100.742 157.325C100.027 156.493 99.625 155.364 99.625 154.188V92.0625C99.625 90.8856 100.027 89.7569 100.742 88.9247C101.457 88.0925 102.426 87.625 103.438 87.625H145.375V78.75H103.438Z" fill="#0D6EFC"/>
<path d="M139.112 131.384C139.847 129.418 140.246 127.314 140.246 125.001C140.246 123.336 140.015 121.74 139.616 120.26C138.251 120.607 136.823 120.792 135.332 120.792C132.279 120.795 129.269 119.991 126.557 118.445C123.845 116.899 121.511 114.658 119.75 111.911C117.868 116.931 114.315 120.969 109.817 123.197C109.733 123.775 109.733 124.4 109.733 125.001C109.733 127.209 110.128 129.395 110.895 131.435C111.662 133.475 112.787 135.328 114.205 136.89C117.068 140.043 120.951 141.814 125 141.814C127.205 141.814 129.326 141.282 131.237 140.334C132.434 142.855 132.98 144.104 132.938 144.104C129.494 145.376 126.827 146 125 146C119.918 146 115.067 143.803 111.497 139.848C109.324 137.466 107.709 134.537 106.793 131.314H104V120.792H106.289C106.983 117.074 108.577 113.633 110.903 110.832C113.229 108.032 116.2 105.978 119.501 104.887C122.802 103.796 126.309 103.71 129.651 104.637C132.993 105.564 136.045 107.471 138.482 110.153C141.128 113.057 142.933 116.759 143.669 120.792H146V131.314H145.874L138.398 138.877L127.268 137.489V133.627H137.411L139.112 131.384ZM119.267 124.469C119.897 124.469 120.506 124.746 120.947 125.255C121.39 125.747 121.639 126.412 121.639 127.105C121.639 127.798 121.39 128.463 120.947 128.956C120.506 129.441 119.897 129.719 119.267 129.719C117.944 129.719 116.873 128.562 116.873 127.105C116.873 125.648 117.944 124.469 119.267 124.469ZM130.712 124.469C132.035 124.469 133.085 125.648 133.085 127.105C133.085 128.562 132.035 129.719 130.712 129.719C129.389 129.719 128.318 128.562 128.318 127.105C128.318 126.406 128.57 125.736 129.019 125.241C129.468 124.747 130.077 124.469 130.712 124.469Z" fill="#0D6EFC"/>
</g>
<defs>
<clipPath id="clip0_10_87">
<rect width="122" height="142" fill="white" transform="translate(92 61)"/>
</clipPath>
</defs>
</svg>
