<svg width="311" height="386" viewBox="0 0 311 386" fill="none" xmlns="http://www.w3.org/2000/svg">
<rect x="1" y="1" width="308.154" height="379.937" rx="7" fill="#F0F0F0" stroke="#0D6EFC" stroke-width="2"/>
<path d="M137.264 286.222L0 12.1895V381.937H300.674L137.264 286.222Z" fill="#0D6EFC"/>
<path d="M9.13412 354.194C9.13412 351.499 9.81772 349.358 11.1849 347.772C12.5521 346.186 14.5247 345.393 17.1029 345.393C18.5872 345.393 19.8451 345.624 20.8763 346.085C21.9076 346.546 22.6341 347.214 23.056 348.089C23.3372 348.667 23.2904 349.057 22.9154 349.26L21.5091 350.01C21.0169 350.276 20.6107 350.128 20.2904 349.565C20.0872 349.206 19.7083 348.882 19.1537 348.593C18.6068 348.303 17.9622 348.159 17.2201 348.159C15.5794 348.159 14.431 348.678 13.7747 349.718C13.1185 350.749 12.7904 352.241 12.7904 354.194C12.7904 356.147 13.1185 357.643 13.7747 358.682C14.431 359.714 15.5794 360.229 17.2201 360.229C18.1029 360.229 18.8451 360.03 19.4466 359.632C20.056 359.233 20.4779 358.854 20.7122 358.495C21.0951 357.909 21.5013 357.76 21.931 358.05L23.3372 358.987C23.7201 359.245 23.7591 359.635 23.4544 360.159C23.0013 360.94 22.224 361.608 21.1224 362.163C20.0208 362.718 18.681 362.995 17.1029 362.995C14.5638 362.995 12.599 362.202 11.2083 360.616C9.82553 359.03 9.13412 356.889 9.13412 354.194ZM27.4388 362.596C26.8919 362.596 26.6185 362.303 26.6185 361.718V346.671C26.6185 346.085 26.8919 345.792 27.4388 345.792H32.8646C35.2787 345.792 37.0404 346.167 38.1497 346.917C39.2591 347.659 39.8138 348.87 39.8138 350.55C39.8138 351.8 39.3646 352.796 38.4662 353.538C37.5677 354.28 36.4271 354.772 35.0443 355.014V355.038C35.7943 355.319 36.3607 355.71 36.7435 356.21C37.1263 356.71 37.4388 357.147 37.681 357.522L40.2591 361.589C40.6888 362.26 40.5404 362.596 39.8138 362.596H37.7747C37.3451 362.596 36.9935 362.366 36.7201 361.905L34.3529 357.956C34.0951 357.534 33.6224 357.073 32.9349 356.573C32.2552 356.065 31.5794 355.811 30.9076 355.811H30.0404V361.718C30.0404 362.303 29.7669 362.596 29.2201 362.596H27.4388ZM30.0404 352.905H32.138C33.7005 352.905 34.8099 352.729 35.4662 352.378C36.1302 352.018 36.4622 351.452 36.4622 350.678C36.4622 349.835 36.1419 349.288 35.5013 349.038C34.8685 348.78 33.9349 348.651 32.7005 348.651H30.0404V352.905ZM44.1732 362.596C43.6263 362.596 43.3529 362.303 43.3529 361.718V346.671C43.3529 346.085 43.6263 345.792 44.1732 345.792H45.9544C46.5013 345.792 46.7747 346.085 46.7747 346.671V361.718C46.7747 362.303 46.5013 362.596 45.9544 362.596H44.1732ZM49.9974 362.596C49.4349 362.596 49.2513 362.339 49.4466 361.823L55.1888 346.741C55.431 346.108 55.7982 345.792 56.2904 345.792H57.931C58.4232 345.792 58.7904 346.108 59.0326 346.741L64.7747 361.823C64.9701 362.339 64.7865 362.596 64.224 362.596H62.3607C61.8451 362.596 61.4857 362.327 61.2826 361.788L60.0872 358.635H54.1341L52.9388 361.788C52.7357 362.327 52.3763 362.596 51.8607 362.596H49.9974ZM55.224 355.729H58.9974L57.556 352.003C57.3841 351.565 57.2787 351.249 57.2396 351.053C57.2083 350.85 57.1732 350.553 57.1341 350.163H57.0872C57.0482 350.553 57.0091 350.85 56.9701 351.053C56.9388 351.249 56.8372 351.565 56.6654 352.003L55.224 355.729ZM65.9935 354.194C65.9935 351.499 66.6771 349.358 68.0443 347.772C69.4115 346.186 71.3841 345.393 73.9622 345.393C75.4466 345.393 76.7044 345.624 77.7357 346.085C78.7669 346.546 79.4935 347.214 79.9154 348.089C80.1966 348.667 80.1497 349.057 79.7747 349.26L78.3685 350.01C77.8763 350.276 77.4701 350.128 77.1497 349.565C76.9466 349.206 76.5677 348.882 76.013 348.593C75.4662 348.303 74.8216 348.159 74.0794 348.159C72.4388 348.159 71.2904 348.678 70.6341 349.718C69.9779 350.749 69.6497 352.241 69.6497 354.194C69.6497 356.147 69.9779 357.643 70.6341 358.682C71.2904 359.714 72.4388 360.229 74.0794 360.229C74.9622 360.229 75.7044 360.03 76.306 359.632C76.9154 359.233 77.3372 358.854 77.5716 358.495C77.9544 357.909 78.3607 357.76 78.7904 358.05L80.1966 358.987C80.5794 359.245 80.6185 359.635 80.3138 360.159C79.8607 360.94 79.0833 361.608 77.9818 362.163C76.8802 362.718 75.5404 362.995 73.9622 362.995C71.4232 362.995 69.4583 362.202 68.0677 360.616C66.6849 359.03 65.9935 356.889 65.9935 354.194ZM71.4193 367.296C71.2005 367.233 71.1302 367.069 71.2083 366.803L71.3607 366.276C71.4466 365.987 71.6263 365.897 71.8997 366.007C72.1654 366.108 72.4779 366.159 72.8372 366.159C73.1576 366.159 73.4076 366.104 73.5872 365.995C73.7747 365.893 73.8685 365.729 73.8685 365.503C73.8685 365.307 73.7708 365.159 73.5755 365.057C73.388 364.956 73.0833 364.905 72.6615 364.905H72.4154C72.1497 364.905 72.0169 364.768 72.0169 364.495C72.0169 364.175 72.0716 363.909 72.181 363.698L72.7435 362.596C72.8294 362.425 72.9857 362.339 73.2122 362.339H74.1849C74.4193 362.339 74.4935 362.425 74.4076 362.596L73.8802 363.628V363.663C74.5521 363.757 75.0208 363.956 75.2865 364.26C75.5521 364.565 75.6849 364.964 75.6849 365.456C75.6849 366.206 75.4271 366.733 74.9115 367.038C74.3958 367.35 73.7474 367.507 72.9662 367.507C72.4271 367.507 71.9115 367.436 71.4193 367.296ZM85.6224 344.046C85.3568 343.882 85.3255 343.632 85.5287 343.296C85.8177 342.819 86.1771 342.432 86.6068 342.135C87.0365 341.831 87.6341 341.678 88.3997 341.678C88.9466 341.678 89.5872 341.858 90.3216 342.218C91.056 342.577 91.5755 342.757 91.8802 342.757C92.1537 342.757 92.4154 342.69 92.6654 342.557C92.9232 342.425 93.1146 342.26 93.2396 342.065C93.4505 341.737 93.6849 341.651 93.9427 341.807L94.5052 342.147C94.7708 342.311 94.8021 342.561 94.599 342.897C94.3099 343.374 93.9505 343.764 93.5208 344.069C93.0912 344.366 92.4935 344.514 91.7279 344.514C91.1497 344.514 90.5091 344.335 89.806 343.975C89.1029 343.616 88.5833 343.436 88.2474 343.436C87.974 343.436 87.7083 343.503 87.4505 343.635C87.2005 343.768 87.013 343.932 86.888 344.128C86.6771 344.456 86.4427 344.542 86.1849 344.385L85.6224 344.046ZM82.9505 362.596C82.388 362.596 82.2044 362.339 82.3997 361.823L88.1419 346.741C88.3841 346.108 88.7513 345.792 89.2435 345.792H90.8841C91.3763 345.792 91.7435 346.108 91.9857 346.741L97.7279 361.823C97.9232 362.339 97.7396 362.596 97.1771 362.596H95.3138C94.7982 362.596 94.4388 362.327 94.2357 361.788L93.0404 358.635H87.0872L85.8919 361.788C85.6888 362.327 85.3294 362.596 84.8138 362.596H82.9505ZM88.1771 355.729H91.9505L90.5091 352.003C90.3372 351.565 90.2318 351.249 90.1927 351.053C90.1615 350.85 90.1263 350.553 90.0872 350.163H90.0404C90.0013 350.553 89.9622 350.85 89.9232 351.053C89.8919 351.249 89.7904 351.565 89.6185 352.003L88.1771 355.729ZM98.9466 354.194C98.9466 351.499 99.6419 349.358 101.033 347.772C102.423 346.186 104.408 345.393 106.986 345.393C109.564 345.393 111.548 346.186 112.939 347.772C114.329 349.358 115.025 351.499 115.025 354.194C115.025 356.889 114.329 359.03 112.939 360.616C111.548 362.202 109.564 362.995 106.986 362.995C104.408 362.995 102.423 362.202 101.033 360.616C99.6419 359.03 98.9466 356.889 98.9466 354.194ZM102.603 354.194C102.603 356.147 102.951 357.643 103.646 358.682C104.349 359.714 105.462 360.229 106.986 360.229C108.509 360.229 109.618 359.714 110.314 358.682C111.017 357.643 111.368 356.147 111.368 354.194C111.368 352.241 111.017 350.749 110.314 349.718C109.618 348.678 108.509 348.159 106.986 348.159C105.462 348.159 104.349 348.678 103.646 349.718C102.951 350.749 102.603 352.241 102.603 354.194Z" fill="white"/>
<g clip-path="url(#clip0_10_69)">
<path d="M207.221 94.6376C207.221 91.4497 208.309 88.3923 210.246 86.1381C212.183 83.8838 214.809 82.6174 217.548 82.6174H279.511C282.25 82.6174 284.877 83.8838 286.814 86.1381C288.751 88.3923 289.839 91.4497 289.839 94.6376V262.92C289.839 266.108 288.751 269.165 286.814 271.42C284.877 273.674 282.25 274.94 279.511 274.94H217.548C214.809 274.94 212.183 273.674 210.246 271.42C208.309 269.165 207.221 266.108 207.221 262.92V94.6376ZM217.548 256.91C217.548 258.504 218.092 260.033 219.061 261.16C220.029 262.287 221.342 262.92 222.712 262.92C224.081 262.92 225.395 262.287 226.363 261.16C227.331 260.033 227.875 258.504 227.875 256.91C227.875 255.316 227.331 253.787 226.363 252.66C225.395 251.533 224.081 250.9 222.712 250.9C221.342 250.9 220.029 251.533 219.061 252.66C218.092 253.787 217.548 255.316 217.548 256.91ZM238.203 256.91C238.203 258.504 238.747 260.033 239.715 261.16C240.683 262.287 241.997 262.92 243.366 262.92C244.736 262.92 246.049 262.287 247.017 261.16C247.986 260.033 248.53 258.504 248.53 256.91C248.53 255.316 247.986 253.787 247.017 252.66C246.049 251.533 244.736 250.9 243.366 250.9C241.997 250.9 240.683 251.533 239.715 252.66C238.747 253.787 238.203 255.316 238.203 256.91ZM222.712 94.6376C221.342 94.6376 220.029 95.2708 219.061 96.3979C218.092 97.525 217.548 99.0537 217.548 100.648C217.548 102.242 218.092 103.77 219.061 104.897C220.029 106.025 221.342 106.658 222.712 106.658H274.348C275.717 106.658 277.031 106.025 277.999 104.897C278.967 103.77 279.511 102.242 279.511 100.648C279.511 99.0537 278.967 97.525 277.999 96.3979C277.031 95.2708 275.717 94.6376 274.348 94.6376H222.712ZM217.548 124.688C217.548 126.282 218.092 127.811 219.061 128.938C220.029 130.065 221.342 130.698 222.712 130.698H274.348C275.717 130.698 277.031 130.065 277.999 128.938C278.967 127.811 279.511 126.282 279.511 124.688C279.511 123.094 278.967 121.565 277.999 120.438C277.031 119.311 275.717 118.678 274.348 118.678H222.712C221.342 118.678 220.029 119.311 219.061 120.438C218.092 121.565 217.548 123.094 217.548 124.688ZM140.094 106.658C135.986 106.658 132.046 108.557 129.141 111.939C126.236 115.32 124.604 119.906 124.604 124.688V208.829C124.604 213.611 126.236 218.197 129.141 221.579C132.046 224.96 135.986 226.86 140.094 226.86H186.567V250.9H181.403C180.034 250.9 178.72 251.533 177.752 252.66C176.784 253.787 176.239 255.316 176.239 256.91C176.239 258.504 176.784 260.033 177.752 261.16C178.72 262.287 180.034 262.92 181.403 262.92H196.894V214.839H140.094C138.725 214.839 137.411 214.206 136.443 213.079C135.475 211.952 134.931 210.423 134.931 208.829V124.688C134.931 123.094 135.475 121.565 136.443 120.438C137.411 119.311 138.725 118.678 140.094 118.678H196.894V106.658H140.094Z" fill="#0D6EFC"/>
<path d="M157.858 163.149L148.578 170.653L157.858 178.157C158.166 178.401 158.421 178.703 158.608 179.044C158.795 179.384 158.911 179.758 158.949 180.142C158.986 180.527 158.945 180.914 158.828 181.283C158.71 181.652 158.519 181.995 158.264 182.292C158.009 182.588 157.697 182.833 157.344 183.012C156.991 183.191 156.606 183.3 156.209 183.334C155.813 183.367 155.413 183.324 155.034 183.207C154.655 183.09 154.303 182.902 154 182.652L141.941 172.901C141.602 172.626 141.328 172.282 141.141 171.894C140.953 171.506 140.856 171.082 140.856 170.653C140.856 170.224 140.953 169.8 141.141 169.412C141.328 169.023 141.602 168.68 141.941 168.405L154 158.654C154.615 158.165 155.404 157.931 156.196 158.004C156.988 158.077 157.718 158.451 158.227 159.044C158.736 159.637 158.983 160.401 158.914 161.17C158.845 161.939 158.465 162.65 157.858 163.149ZM202.073 168.405L190.014 158.654C189.711 158.404 189.359 158.216 188.98 158.099C188.601 157.982 188.201 157.939 187.805 157.972C187.408 158.006 187.023 158.115 186.67 158.294C186.318 158.473 186.005 158.717 185.75 159.014C185.495 159.311 185.304 159.654 185.186 160.022C185.069 160.391 185.028 160.779 185.065 161.164C185.103 161.548 185.219 161.921 185.406 162.262C185.593 162.603 185.848 162.904 186.156 163.149L195.436 170.653L186.156 178.157C185.848 178.401 185.593 178.703 185.406 179.044C185.219 179.384 185.103 179.758 185.065 180.142C185.028 180.527 185.069 180.914 185.186 181.283C185.304 181.652 185.495 181.995 185.75 182.292C186.005 182.588 186.318 182.833 186.67 183.012C187.023 183.191 187.408 183.3 187.805 183.334C188.201 183.367 188.601 183.324 188.98 183.207C189.359 183.09 189.711 182.902 190.014 182.652L202.073 172.901C202.412 172.626 202.686 172.282 202.873 171.894C203.061 171.506 203.158 171.082 203.158 170.653C203.158 170.224 203.061 169.8 202.873 169.412C202.686 169.023 202.412 168.68 202.073 168.405ZM181.076 146.45C180.704 146.319 180.309 146.26 179.913 146.277C179.518 146.293 179.129 146.386 178.77 146.548C178.412 146.711 178.089 146.94 177.822 147.224C177.555 147.507 177.347 147.839 177.212 148.2L161.134 191.107C160.862 191.836 160.899 192.64 161.237 193.342C161.575 194.045 162.187 194.589 162.938 194.854C163.268 194.972 163.617 195.032 163.968 195.032C164.587 195.032 165.191 194.847 165.698 194.502C166.205 194.158 166.59 193.67 166.802 193.106L182.88 150.199C183.015 149.838 183.076 149.455 183.058 149.071C183.041 148.687 182.946 148.31 182.778 147.962C182.611 147.614 182.374 147.301 182.082 147.042C181.79 146.782 181.448 146.581 181.076 146.45Z" fill="#0D6EFC"/>
</g>
<g clip-path="url(#clip1_10_69)">
<path d="M207.221 94.6376C207.221 91.4497 208.309 88.3923 210.246 86.1381C212.183 83.8838 214.809 82.6174 217.548 82.6174H279.511C282.25 82.6174 284.877 83.8838 286.814 86.1381C288.751 88.3923 289.839 91.4497 289.839 94.6376V262.92C289.839 266.108 288.751 269.165 286.814 271.42C284.877 273.674 282.25 274.94 279.511 274.94H217.548C214.809 274.94 212.183 273.674 210.246 271.42C208.309 269.165 207.221 266.108 207.221 262.92V94.6376ZM217.548 256.91C217.548 258.504 218.092 260.033 219.061 261.16C220.029 262.287 221.342 262.92 222.712 262.92C224.081 262.92 225.395 262.287 226.363 261.16C227.331 260.033 227.875 258.504 227.875 256.91C227.875 255.316 227.331 253.787 226.363 252.66C225.395 251.533 224.081 250.9 222.712 250.9C221.342 250.9 220.029 251.533 219.061 252.66C218.092 253.787 217.548 255.316 217.548 256.91ZM238.203 256.91C238.203 258.504 238.747 260.033 239.715 261.16C240.683 262.287 241.997 262.92 243.366 262.92C244.736 262.92 246.049 262.287 247.017 261.16C247.986 260.033 248.53 258.504 248.53 256.91C248.53 255.316 247.986 253.787 247.017 252.66C246.049 251.533 244.736 250.9 243.366 250.9C241.997 250.9 240.683 251.533 239.715 252.66C238.747 253.787 238.203 255.316 238.203 256.91ZM222.712 94.6376C221.342 94.6376 220.029 95.2708 219.061 96.3979C218.092 97.525 217.548 99.0537 217.548 100.648C217.548 102.242 218.092 103.77 219.061 104.897C220.029 106.025 221.342 106.658 222.712 106.658H274.348C275.717 106.658 277.031 106.025 277.999 104.897C278.967 103.77 279.511 102.242 279.511 100.648C279.511 99.0537 278.967 97.525 277.999 96.3979C277.031 95.2708 275.717 94.6376 274.348 94.6376H222.712ZM217.548 124.688C217.548 126.282 218.092 127.811 219.061 128.938C220.029 130.065 221.342 130.698 222.712 130.698H274.348C275.717 130.698 277.031 130.065 277.999 128.938C278.967 127.811 279.511 126.282 279.511 124.688C279.511 123.094 278.967 121.565 277.999 120.438C277.031 119.311 275.717 118.678 274.348 118.678H222.712C221.342 118.678 220.029 119.311 219.061 120.438C218.092 121.565 217.548 123.094 217.548 124.688ZM140.094 106.658C135.986 106.658 132.046 108.557 129.141 111.939C126.236 115.32 124.604 119.906 124.604 124.688V208.829C124.604 213.611 126.236 218.197 129.141 221.579C132.046 224.96 135.986 226.86 140.094 226.86H186.567V250.9H181.403C180.034 250.9 178.72 251.533 177.752 252.66C176.784 253.787 176.239 255.316 176.239 256.91C176.239 258.504 176.784 260.033 177.752 261.16C178.72 262.287 180.034 262.92 181.403 262.92H196.894V214.839H140.094C138.725 214.839 137.411 214.206 136.443 213.079C135.475 211.952 134.931 210.423 134.931 208.829V124.688C134.931 123.094 135.475 121.565 136.443 120.438C137.411 119.311 138.725 118.678 140.094 118.678H196.894V106.658H140.094Z" fill="#0D6EFC"/>
<path d="M157.858 163.149L148.578 170.653L157.858 178.157C158.166 178.401 158.421 178.703 158.608 179.044C158.795 179.384 158.911 179.758 158.949 180.142C158.986 180.527 158.945 180.914 158.828 181.283C158.71 181.652 158.519 181.995 158.264 182.292C158.009 182.588 157.697 182.833 157.344 183.012C156.991 183.191 156.606 183.3 156.209 183.334C155.813 183.367 155.413 183.324 155.034 183.207C154.655 183.09 154.303 182.902 154 182.652L141.941 172.901C141.602 172.626 141.328 172.282 141.141 171.894C140.953 171.506 140.856 171.082 140.856 170.653C140.856 170.224 140.953 169.8 141.141 169.412C141.328 169.023 141.602 168.68 141.941 168.405L154 158.654C154.615 158.165 155.404 157.931 156.196 158.004C156.988 158.077 157.718 158.451 158.227 159.044C158.736 159.637 158.983 160.401 158.914 161.17C158.845 161.939 158.465 162.65 157.858 163.149ZM202.073 168.405L190.014 158.654C189.711 158.404 189.359 158.216 188.98 158.099C188.601 157.982 188.201 157.939 187.805 157.972C187.408 158.006 187.023 158.115 186.67 158.294C186.318 158.473 186.005 158.717 185.75 159.014C185.495 159.311 185.304 159.654 185.186 160.022C185.069 160.391 185.028 160.779 185.065 161.164C185.103 161.548 185.219 161.921 185.406 162.262C185.593 162.603 185.848 162.904 186.156 163.149L195.436 170.653L186.156 178.157C185.848 178.401 185.593 178.703 185.406 179.044C185.219 179.384 185.103 179.758 185.065 180.142C185.028 180.527 185.069 180.914 185.186 181.283C185.304 181.652 185.495 181.995 185.75 182.292C186.005 182.588 186.318 182.833 186.67 183.012C187.023 183.191 187.408 183.3 187.805 183.334C188.201 183.367 188.601 183.324 188.98 183.207C189.359 183.09 189.711 182.902 190.014 182.652L202.073 172.901C202.412 172.626 202.686 172.282 202.873 171.894C203.061 171.506 203.158 171.082 203.158 170.653C203.158 170.224 203.061 169.8 202.873 169.412C202.686 169.023 202.412 168.68 202.073 168.405ZM181.076 146.45C180.704 146.319 180.309 146.26 179.913 146.277C179.518 146.293 179.129 146.386 178.77 146.548C178.412 146.711 178.089 146.94 177.822 147.224C177.555 147.507 177.347 147.839 177.212 148.2L161.134 191.107C160.862 191.836 160.899 192.64 161.237 193.342C161.575 194.045 162.187 194.589 162.938 194.854C163.268 194.972 163.617 195.032 163.968 195.032C164.587 195.032 165.191 194.847 165.698 194.502C166.205 194.158 166.59 193.67 166.802 193.106L182.88 150.199C183.015 149.838 183.076 149.455 183.058 149.071C183.041 148.687 182.946 148.31 182.778 147.962C182.611 147.614 182.374 147.301 182.082 147.042C181.79 146.782 181.448 146.581 181.076 146.45Z" fill="#0D6EFC"/>
</g>
<defs>
<clipPath id="clip0_10_69">
<rect width="165.235" height="192.323" fill="white" transform="translate(124.604 82.6174)"/>
</clipPath>
<clipPath id="clip1_10_69">
<rect width="165.235" height="192.323" fill="white" transform="translate(124.604 82.6174)"/>
</clipPath>
</defs>
</svg>
